<?xml version="1.0" encoding="UTF-8"?>
<svg xmlns="http://www.w3.org/2000/svg" width="164" height="48" viewBox="0 0 164 48" fill="none">
  <path d="M158.055 47.3045H6.11307C2.96945 47.3045 0.524414 44.8697 0.524414 41.7392V6.08707C0.524414 2.95663 2.96945 0.521851 6.11307 0.521851H157.88C161.024 0.521851 163.469 2.95663 163.469 6.08707V41.9132C163.643 44.8697 161.024 47.3045 158.055 47.3045Z" fill="#1E584F"></path>
  <path d="M158.054 48H6.1126C2.79433 48 0 45.2174 0 41.913V6.08696C0 2.78261 2.79433 0 6.1126 0H157.88C161.198 0 163.992 2.78261 163.992 6.08696V41.913C164.167 45.2174 161.373 48 158.054 48ZM6.1126 1.04348C3.49291 1.04348 1.22252 3.30435 1.22252 6.08696V41.913C1.22252 44.6957 3.49291 46.9565 6.28724 46.9565H158.054C160.849 46.9565 163.119 44.6957 163.119 41.913V6.08696C163.119 3.30435 160.849 1.04348 158.054 1.04348H6.1126Z" fill="#A6A8AB"></path>
  <path d="M54.6639 13.5651L53.9654 15.826H52.3936L55.0132 7.99988H56.9343L59.3794 15.826H57.8076L57.109 13.5651H54.6639ZM56.9343 12.5216L56.4104 10.6086C56.2358 10.0868 56.0611 9.5651 56.0611 9.04336C55.8865 9.5651 55.8865 10.0868 55.7118 10.6086L55.0132 12.5216H56.9343Z" fill="white"></path>
  <path d="M61.6498 10.0869L62.523 13.0434C62.6977 13.5652 62.8723 14.0869 62.8723 14.4347C62.8723 13.913 63.0469 13.5652 63.2216 13.0434L64.0948 10.0869H65.6666L63.3962 15.826H61.9991L59.9033 10.0869H61.6498Z" fill="white"></path>
  <path d="M71.6051 14.4347C71.6051 14.9564 71.6051 15.4782 71.6051 15.826H70.3826V15.3043C70.0333 15.826 69.5093 15.9999 68.6361 15.9999C67.5882 15.9999 66.8896 15.1304 66.8896 14.2608C66.8896 12.8695 68.1122 11.9999 70.2079 11.9999C70.2079 11.6521 70.0333 10.9564 69.16 10.9564C68.6361 10.9564 68.1122 11.1304 67.5882 11.4782L67.0643 10.4347C67.5882 10.2608 68.1122 9.91296 69.16 9.91296C70.9065 9.91296 71.4304 10.9564 71.4304 12.3477L71.6051 14.4347ZM70.2079 13.0434C69.16 13.0434 68.1122 13.2173 68.1122 14.0869C68.1122 14.6086 68.4615 14.9564 68.9854 14.9564C69.5093 14.9564 70.0333 14.6086 70.0333 14.2608C70.0333 14.2608 70.0333 14.0869 70.0333 13.913L70.2079 13.0434Z" fill="white"></path>
  <path d="M74.399 9.21723C73.8748 9.21723 73.5254 8.86941 73.5254 8.52158C73.5254 7.99984 73.8748 7.82593 74.399 7.82593C74.9232 7.82593 75.2726 8.17375 75.2726 8.52158C75.0979 8.86941 74.9232 9.21723 74.399 9.21723ZM73.7001 15.8259V10.0868H75.0979V15.8259H73.7001Z" fill="white"></path>
  <path d="M77.1934 7.47839H78.5911V15.8262H77.1934V7.47839Z" fill="white"></path>
  <path d="M85.2272 14.4347C85.2272 14.9565 85.2272 15.4782 85.2272 15.826H84.0046V15.3043C83.6553 15.826 83.1314 16 82.2582 16C81.2103 16 80.5117 15.1304 80.5117 14.2608C80.5117 12.8695 81.7342 12 83.83 12C83.83 11.6521 83.6553 10.9565 82.7821 10.9565C82.2582 10.9565 81.7342 11.1304 81.2103 11.4782L80.861 10.6087C81.3849 10.4347 81.9089 10.0869 82.9568 10.0869C84.7032 10.0869 85.2272 11.1304 85.2272 12.5217V14.4347ZM83.83 13.0434C82.7821 13.0434 81.7342 13.2173 81.7342 14.0869C81.7342 14.6087 82.0835 14.9565 82.6075 14.9565C83.1314 14.9565 83.6553 14.6087 83.6553 14.2608C83.6553 14.2608 83.6553 14.0869 83.6553 13.913L83.83 13.0434Z" fill="white"></path>
  <path d="M87.1484 7.47839H88.5456V10.7827C88.8949 10.261 89.5935 9.91318 90.2921 9.91318C91.6892 9.91318 92.7371 10.9567 92.7371 12.8697C92.7371 14.9567 91.5146 16.0001 90.1174 16.0001C89.4188 16.0001 88.7202 15.6523 88.371 14.9567V15.8262H87.1484C87.1484 15.4784 87.1484 14.7827 87.1484 14.261V7.47839V7.47839ZM88.7202 13.5653C88.7202 13.7393 88.7202 13.7393 88.7202 13.9132C88.8949 14.4349 89.4188 14.9567 89.9428 14.9567C90.816 14.9567 91.3399 14.261 91.3399 13.0436C91.3399 12.0001 90.816 11.3045 89.9428 11.3045C89.4188 11.3045 88.8949 11.8262 88.7202 12.348C88.7202 12.348 88.7202 12.5219 88.7202 12.6958V13.5653Z" fill="white"></path>
  <path d="M94.6582 7.47839H96.056V15.8262H94.6582V7.47839Z" fill="white"></path>
  <path d="M99.1989 13.3913C99.1989 14.4347 100.072 14.9565 100.945 14.9565C101.644 14.9565 101.993 14.9565 102.517 14.7826L102.692 15.826C102.168 16 101.469 16.1739 100.596 16.1739C98.8496 16 97.8018 14.7826 97.8018 13.2173C97.8018 11.6521 98.8496 10.0869 100.596 10.0869C102.517 10.0869 103.041 11.6521 103.041 12.8695C103.041 13.2173 103.041 13.3913 103.041 13.3913H99.1989ZM101.644 12.3478C101.644 11.826 101.469 10.9565 100.421 10.9565C99.5482 10.9565 99.1989 11.826 99.0243 12.3478H101.644Z" fill="white"></path>
  <path d="M110.202 16C108.63 16 107.407 14.9565 107.407 13.0434C107.407 11.1304 108.63 10.0869 110.376 10.0869C112.123 10.0869 113.171 11.3043 113.171 13.0434C113.171 14.9565 111.599 16 110.202 16ZM110.202 14.9565C111.075 14.9565 111.599 14.0869 111.599 13.0434C111.599 12.1739 111.249 11.1304 110.202 11.1304C109.154 11.1304 108.804 12.1739 108.804 13.0434C108.804 14.0869 109.328 14.9565 110.202 14.9565Z" fill="white"></path>
  <path d="M114.742 11.826C114.742 11.1304 114.742 10.6086 114.742 10.0869H115.965V10.9564C116.139 10.4347 116.838 9.91296 117.711 9.91296C118.759 9.91296 119.807 10.6086 119.807 12.3477V15.6521H118.41V12.6956C118.41 11.826 118.06 11.3043 117.362 11.3043C116.838 11.3043 116.314 11.6521 116.314 12.1738C116.314 12.3477 116.314 12.5217 116.314 12.6956V15.9999H114.917L114.742 11.826Z" fill="white"></path>
  <path d="M126.793 8.69568V10.2609H128.19V11.3044H126.793V13.7392C126.793 14.4348 126.967 14.7826 127.491 14.7826C127.666 14.7826 127.841 14.7826 128.015 14.7826V15.8261C127.841 15.8261 127.491 16 126.967 16C126.444 16 125.92 15.8261 125.745 15.4783C125.396 15.1305 125.221 14.6087 125.221 13.9131V11.1305H124.522V10.087H125.396V9.04351L126.793 8.69568Z" fill="white"></path>
  <path d="M129.762 7.47839H131.159V10.7827C131.334 10.4349 131.683 10.261 131.857 10.0871C132.207 9.91318 132.381 9.91318 132.905 9.91318C133.953 9.91318 135.001 10.6088 135.001 12.348V15.6523H133.604V12.6958C133.604 11.8262 133.255 11.3045 132.556 11.3045C132.032 11.3045 131.508 11.6523 131.508 12.174C131.508 12.348 131.508 12.5219 131.508 12.6958V16.174H130.111V7.47839H129.762Z" fill="white"></path>
  <path d="M137.97 13.3913C137.97 14.4347 138.843 14.9565 139.717 14.9565C140.415 14.9565 140.765 14.9565 141.289 14.7826L141.463 15.6521C140.939 15.826 140.241 16 139.367 16C137.446 16 136.398 14.9565 136.398 13.2173C136.398 11.6521 137.446 10.0869 139.193 10.0869C141.114 10.0869 141.638 11.6521 141.638 12.8695C141.638 13.2173 141.638 13.3913 141.638 13.3913H137.97ZM140.415 12.3478C140.415 11.826 140.241 10.9565 139.193 10.9565C138.32 10.9565 137.97 11.826 137.796 12.3478H140.415Z" fill="white"></path>
  <path d="M36.6752 23.4782C36.6752 19.6521 39.9934 17.7391 39.9934 17.5651C38.247 14.7825 35.278 14.6086 34.2301 14.4347C31.9597 14.2608 29.5147 15.9999 28.2922 15.9999C27.0696 15.9999 25.1485 14.6086 23.2274 14.6086C20.6078 14.6086 18.1627 16.1738 16.7655 18.4347C13.9712 23.1304 16.067 30.2608 18.6866 34.0869C20.0838 35.9999 21.481 38.0869 23.5767 37.913C25.4978 37.913 26.3711 36.6956 28.6414 36.6956C30.9118 36.6956 31.7851 37.913 33.7062 37.913C35.8019 37.913 37.1991 35.9999 38.4216 34.0869C39.9934 31.826 40.5174 29.7391 40.692 29.7391C40.692 29.7391 36.6752 28.1738 36.6752 23.4782Z" fill="white"></path>
  <path d="M32.6587 12C33.7066 10.6087 34.4052 8.86959 34.2305 6.95654C32.6587 6.95654 30.7376 8.00002 29.6897 9.21741C28.6418 10.2609 27.7686 12.1739 27.9433 14.087C29.8644 14.2609 31.6108 13.2174 32.6587 12Z" fill="white"></path>
  <path d="M65.3175 37.739H62.5232L60.9514 33.0434H55.712L54.3148 37.739H51.5205L56.7599 21.739H60.0781L65.3175 37.739ZM60.4274 30.9564L59.0303 26.7825C58.8556 26.2608 58.5063 25.3912 58.157 23.826C57.9824 24.5216 57.6331 25.5651 57.4585 26.7825L56.0613 30.9564H60.4274Z" fill="white"></path>
  <path d="M78.7654 31.8261C78.7654 33.7391 78.2414 35.3044 77.1936 36.5217C76.1457 37.5652 74.9232 38.087 73.7006 38.087C72.1288 38.087 71.081 37.5652 70.3824 36.3478V42.4348H67.7627V29.913C67.7627 28.6957 67.7627 27.4783 67.7627 26.087H69.8584L70.0331 27.8261C70.9063 26.4348 72.3035 25.7391 73.8753 25.7391C75.2725 25.7391 76.3203 26.2609 77.3682 27.4783C78.2414 28.5217 78.7654 29.913 78.7654 31.8261ZM75.971 31.8261C75.971 30.7826 75.7964 29.7391 75.2725 29.0435C74.7485 28.3478 74.0499 28 73.0021 28C72.4781 28 71.7795 28.1739 71.2556 28.5217C70.7317 29.0435 70.3824 29.5652 70.2077 30.2609C70.2077 30.6087 70.0331 30.7826 70.0331 30.9565V32.8696C70.0331 33.7391 70.2077 34.4348 70.7317 34.9565C71.2556 35.4783 71.9542 35.8261 72.8274 35.8261C73.8753 35.8261 74.5739 35.4783 75.0978 34.7826C75.7964 34.087 75.971 33.0435 75.971 31.8261Z" fill="white"></path>
  <path d="M92.0388 31.8261C92.0388 33.7391 91.5149 35.3044 90.467 36.5217C89.4191 37.5652 88.3712 38.087 86.9741 38.087C85.4023 38.087 84.3544 37.5652 83.6558 36.3478V42.4348H81.0361V29.913C81.0361 28.6957 81.0361 27.4783 81.0361 26.087H83.3065L83.4812 27.8261C84.3544 26.4348 85.7516 25.7391 87.3234 25.7391C88.7205 25.7391 89.7684 26.2609 90.8163 27.4783C91.5149 28.5217 92.0388 29.913 92.0388 31.8261ZM89.4191 31.8261C89.4191 30.7826 89.2445 29.7391 88.7205 29.0435C88.1966 28.3478 87.498 28 86.4501 28C85.9262 28 85.2276 28.1739 84.7037 28.5217C84.1798 29.0435 83.8305 29.5652 83.6558 30.2609C83.6558 30.6087 83.4812 30.7826 83.4812 30.9565V32.8696C83.4812 33.7391 83.6558 34.4348 84.1798 34.9565C84.7037 35.4783 85.4023 35.8261 86.2755 35.8261C87.3234 35.8261 88.022 35.4783 88.5459 34.7826C89.2445 34.087 89.4191 33.0435 89.4191 31.8261Z" fill="white"></path>
  <path d="M107.057 33.2175C107.057 34.6088 106.533 35.6523 105.66 36.5219C104.612 37.5654 103.215 37.9132 101.294 37.9132C99.5476 37.9132 98.1504 37.5654 97.1025 36.8697L97.6265 34.6088C98.6744 35.3045 100.072 35.6523 101.469 35.6523C102.517 35.6523 103.215 35.4784 103.739 34.9567C104.263 34.4349 104.612 33.9132 104.612 33.2175C104.612 32.5219 104.438 32.0001 103.914 31.4784C103.39 30.9567 102.691 30.6088 101.643 30.261C98.849 29.2175 97.4518 27.6523 97.4518 25.7393C97.4518 24.348 97.9758 23.3045 99.0236 22.4349C100.072 21.5654 101.294 21.2175 102.866 21.2175C104.438 21.2175 105.66 21.3914 106.533 21.9132L105.835 24.0001C104.962 23.4784 103.914 23.3045 102.691 23.3045C101.818 23.3045 100.945 23.4784 100.595 24.0001C100.072 24.348 99.8969 24.8697 99.8969 25.3914C99.8969 25.9132 100.072 26.4349 100.595 26.9567C101.119 27.3045 101.818 27.8262 102.866 28.174C104.263 28.6958 105.311 29.3914 106.009 30.0871C106.708 31.1306 107.057 32.0001 107.057 33.2175Z" fill="white"></path>
  <path d="M115.615 27.9999H112.821V33.5651C112.821 34.9564 113.345 35.8259 114.393 35.8259C114.917 35.8259 115.266 35.8259 115.441 35.652V37.5651C114.917 37.739 114.218 37.9129 113.345 37.9129C112.297 37.9129 111.599 37.5651 110.9 37.0433C110.376 36.5216 110.027 35.3042 110.027 33.9129V27.9999H108.28V26.0868H110.027V23.9999L112.646 23.3042V26.0868H115.441L115.615 27.9999Z" fill="white"></path>
  <path d="M128.539 31.8261C128.539 33.5652 128.015 35.1304 126.967 36.1739C125.92 37.3913 124.522 37.913 122.601 37.913C120.855 37.913 119.458 37.3913 118.585 36.1739C117.537 35.1304 117.013 33.5652 117.013 31.8261C117.013 30.087 117.537 28.5217 118.585 27.4783C119.632 26.4348 121.03 25.7391 122.776 25.7391C124.522 25.7391 125.92 26.2609 126.967 27.4783C128.015 28.6957 128.539 30.087 128.539 31.8261ZM125.92 31.8261C125.92 30.7826 125.745 29.913 125.221 29.0435C124.697 28.1739 123.999 27.6522 122.951 27.6522C121.903 27.6522 121.204 28.1739 120.68 29.0435C120.156 29.7391 119.982 30.7826 119.982 31.8261C119.982 32.8696 120.156 33.7391 120.68 34.6087C121.204 35.4783 122.077 36 122.951 36C123.824 36 124.697 35.4783 125.221 34.6087C125.57 33.913 125.92 33.0435 125.92 31.8261Z" fill="white"></path>
  <path d="M136.922 28.3479C136.747 28.3479 136.398 28.3479 136.049 28.3479C135.176 28.3479 134.477 28.6957 133.953 29.3914C133.429 29.9131 133.254 30.7827 133.254 31.6523V37.7392H130.635V29.7392C130.635 28.3479 130.635 27.1305 130.635 26.087H132.905V28.3479C133.254 27.6523 133.604 26.9566 134.128 26.6088C134.652 26.087 135.35 26.087 136.049 26.087C136.223 26.087 136.573 26.087 136.747 26.087L136.922 28.3479Z" fill="white"></path>
  <path d="M148.624 31.3044C148.624 31.8261 148.624 32.1739 148.624 32.5217H140.939C140.939 33.5652 141.288 34.6087 141.987 35.1304C142.686 35.6522 143.559 36 144.607 36C145.655 36 146.877 35.8261 147.75 35.4783L148.1 37.2174C147.052 37.7391 145.655 37.913 144.257 37.913C142.511 37.913 140.939 37.3913 140.066 36.3478C139.018 35.3044 138.494 33.913 138.494 32C138.494 30.2609 139.018 28.6957 139.891 27.6522C140.939 26.4348 142.162 25.7391 143.908 25.7391C145.655 25.7391 146.877 26.2609 147.75 27.6522C148.1 28.6957 148.624 29.913 148.624 31.3044ZM146.004 30.6087C146.004 29.9131 145.829 29.2174 145.48 28.6957C144.956 28 144.432 27.6522 143.384 27.6522C142.511 27.6522 141.812 28 141.288 28.6957C140.765 29.2174 140.59 29.913 140.59 30.7826L146.004 30.6087Z" fill="white"></path>
</svg>
