<?xml version="1.0" encoding="UTF-8"?>
<svg xmlns="http://www.w3.org/2000/svg" width="164" height="48" viewBox="0 0 164 48" fill="none">
  <path d="M157.894 47.3067H6.10642C2.96599 47.3067 0.523438 44.8807 0.523438 41.7615V6.06478C0.523438 2.94565 2.96599 0.519653 6.10642 0.519653H157.719C160.86 0.519653 163.302 2.94565 163.302 6.06478V41.7615C163.477 44.8807 160.86 47.3067 157.894 47.3067Z" fill="#1E584F"></path>
  <path d="M157.894 48H6.10638C2.79149 48 0 45.2274 0 41.935V6.06498C0 2.77256 2.79149 0 6.10638 0H157.719C161.209 0 164 2.77256 164 6.06498V41.7617C164 45.2274 161.209 48 157.894 48ZM6.10638 1.03971C3.48936 1.03971 1.22128 3.29242 1.22128 6.06498V41.7617C1.22128 44.5343 3.48936 46.787 6.28085 46.787H157.894C160.685 46.787 162.953 44.5343 162.953 41.7617V6.06498C162.953 3.29242 160.685 1.03971 157.894 1.03971H6.10638Z" fill="#A6A8AB"></path>
  <path d="M82.6981 26.1661C79.9066 26.1661 77.4641 28.4188 77.4641 31.1914C77.4641 34.1372 79.7321 36.2166 82.6981 36.2166C85.4896 36.2166 87.9321 33.9639 87.9321 31.1914C87.9321 28.4188 85.6641 26.1661 82.6981 26.1661ZM82.6981 34.4838C81.1279 34.4838 79.7321 33.2708 79.7321 31.3647C79.7321 29.4585 81.1279 28.2455 82.6981 28.2455C84.2683 28.2455 85.664 29.4585 85.664 31.3647C85.664 33.0975 84.2683 34.4838 82.6981 34.4838ZM71.5321 26.1661C68.7407 26.1661 66.2981 28.4188 66.2981 31.1914C66.2981 34.1372 68.5662 36.2166 71.5321 36.2166C74.3236 36.2166 76.7662 33.9639 76.7662 31.1914C76.5917 28.4188 74.3236 26.1661 71.5321 26.1661ZM71.5321 34.4838C69.9619 34.4838 68.5662 33.2708 68.5662 31.3647C68.5662 29.4585 69.9619 28.2455 71.5321 28.2455C73.1024 28.2455 74.4981 29.4585 74.4981 31.3647C74.3236 33.0975 73.1024 34.4838 71.5321 34.4838ZM58.0981 27.7257V29.9784H63.3321C63.1577 31.1914 62.8087 32.0578 62.1109 32.7509C61.413 33.4441 60.1917 34.3105 58.0981 34.3105C54.7832 34.3105 52.3407 31.7112 52.3407 28.5921C52.3407 25.2997 54.7832 22.8737 58.0981 22.8737C59.8428 22.8737 61.0641 23.5668 61.9364 24.4332L63.5066 22.8737C62.2853 21.6607 60.5407 20.621 57.9236 20.621C53.5619 20.621 49.7236 24.26 49.7236 28.5921C49.7236 32.9242 53.3875 36.5632 57.9236 36.5632C60.3662 36.5632 62.1109 35.8701 63.5066 34.3105C64.9024 32.9242 65.4258 30.8448 65.4258 29.2852C65.4258 28.7654 65.4258 28.2455 65.2513 27.899L58.0981 27.7257ZM113.056 29.4585C112.532 28.4188 111.311 26.1661 108.694 26.1661C106.077 26.1661 103.809 28.2455 103.809 31.1914C103.809 33.9639 106.077 36.2166 108.868 36.2166C111.136 36.2166 112.532 34.8304 113.23 33.9639L111.485 32.7509C110.962 33.6174 110.09 34.1372 108.868 34.1372C107.821 34.1372 106.949 33.6174 106.426 32.5776L113.23 29.8051L113.056 29.4585ZM105.902 31.1914C105.902 29.2852 107.473 28.2455 108.694 28.2455C109.566 28.2455 110.439 28.7654 110.613 29.2852L105.902 31.1914ZM100.319 36.2166H102.587V21.1408H100.319V36.2166ZM96.6555 27.3791C96.1321 26.8592 95.0853 26.3394 93.864 26.3394C91.247 26.3394 88.8045 28.5921 88.8045 31.5379C88.8045 34.3105 91.0726 36.5632 93.864 36.5632C95.0853 36.5632 96.1321 36.0434 96.6555 35.3502V36.0434C96.6555 37.9495 95.6087 38.9892 93.864 38.9892C92.4683 38.9892 91.596 37.9495 91.247 37.2563L89.3279 38.1228C89.8513 39.5091 91.4215 41.0686 93.864 41.0686C96.4811 41.0686 98.7492 39.5091 98.7492 35.6968V26.3394H96.4811V27.3791H96.6555ZM94.0385 34.4838C92.4683 34.4838 91.247 33.2708 91.247 31.3647C91.247 29.6318 92.4683 28.2455 94.0385 28.2455C95.6087 28.2455 96.83 29.6318 96.83 31.3647C96.83 33.0975 95.6087 34.4838 94.0385 34.4838ZM123.524 21.1408H118.115V36.2166H120.383V30.4982H123.524C125.966 30.4982 128.583 28.7654 128.583 25.8195C128.583 23.047 126.141 21.1408 123.524 21.1408ZM123.524 28.4188H120.383V23.2202H123.698C125.443 23.2202 126.315 24.6065 126.315 25.8195C126.315 27.0325 125.268 28.4188 123.524 28.4188ZM137.656 26.1661C135.911 26.1661 134.341 26.8592 133.643 28.4188L135.736 29.2852C136.26 28.4188 136.958 28.2455 137.83 28.2455C139.051 28.2455 140.098 28.9387 140.273 30.1517V30.3249C139.924 30.1517 139.051 29.8051 138.004 29.8051C135.736 29.8051 133.643 31.0181 133.643 33.0975C133.643 35.1769 135.387 36.3899 137.481 36.3899C139.051 36.3899 139.749 35.6968 140.273 34.8304V36.0434H142.541V30.3249C142.192 27.7257 140.098 26.1661 137.656 26.1661ZM137.307 34.4838C136.609 34.4838 135.562 34.1372 135.562 33.2708C135.562 32.0578 136.783 31.7112 138.004 31.7112C139.051 31.7112 139.4 31.8845 140.098 32.2311C139.749 33.4441 138.528 34.4838 137.307 34.4838ZM150.217 26.5127L147.6 32.9242L144.809 26.5127H142.366L146.379 35.6968L144.111 40.7221H146.379L152.66 26.5127H150.217ZM129.804 36.2166H132.073V21.1408H129.804V36.2166Z" fill="white"></path>
  <path d="M12.7363 9.1842C12.3874 9.53077 12.2129 10.0506 12.2129 10.9171V37.4297C12.2129 38.1228 12.3874 38.816 12.7363 39.1625L27.915 24.26V24.0867V23.9134L12.7363 9.1842Z" fill="#5BC8F3"></path>
  <path d="M32.8001 29.2852L27.915 24.2599V24.0866V23.9133L32.9746 18.8881L38.9065 22.1805C40.6512 23.2202 40.6512 24.7798 38.9065 25.6462L32.8001 29.2852Z" fill="url(#paint0_linear_846_7545)"></path>
  <path d="M32.8002 29.2853L27.915 24.26L12.7363 39.1625C13.2597 39.6824 14.481 39.6824 15.3533 38.9893L32.8002 29.2853Z" fill="url(#paint1_linear_846_7545)"></path>
  <path d="M32.9746 18.8879L15.3533 9.01066C14.3065 8.49081 13.2597 8.66409 12.7363 9.18395L27.9151 23.9132L32.9746 18.8879Z" fill="url(#paint2_linear_846_7545)"></path>
  <path d="M55.6549 9.87732C55.1315 9.53074 54.6081 9.18417 53.9103 9.18417C52.34 9.18417 51.2932 10.3972 51.2932 11.9567C51.2932 13.5163 52.34 14.7293 53.9103 14.7293C55.1315 14.7293 56.1783 14.0362 56.1783 12.8232H54.2592V11.9567H57.3996C57.3996 14.3827 56.0039 15.5957 54.0847 15.5957C51.9911 15.5957 50.4209 13.8629 50.4209 11.9567C50.4209 9.87732 51.9911 8.31775 54.0847 8.31775C54.9571 8.31775 55.8294 8.66432 56.5273 9.18417L55.6549 9.87732Z" fill="white"></path>
  <path d="M62.9828 8.49097V9.35739H59.6679V11.6101H62.4594V12.4765H59.6679V14.7292H62.9828V15.5957H58.6211V8.49097H62.9828Z" fill="white"></path>
  <path d="M69.2636 8.49097V9.35739H66.9956V15.5957H65.9487V9.35739H63.6807V8.49097H69.2636Z" fill="white"></path>
  <path d="M73.8002 8.49097V15.5957H72.7529V8.49097H73.8002Z" fill="white"></path>
  <path d="M80.2555 8.49097V9.35739H77.9874V15.5957H76.9406V9.35739H75.0215V8.49097H80.2555Z" fill="white"></path>
  <path d="M87.0593 8.31775C89.153 8.31775 90.7232 10.0506 90.7232 11.9567C90.7232 13.8629 89.153 15.5957 87.0593 15.5957C84.9657 15.5957 83.3955 13.8629 83.3955 11.9567C83.57 10.0506 85.1402 8.31775 87.0593 8.31775ZM87.0593 14.7293C88.6296 14.7293 89.6764 13.5163 89.6764 11.9567C89.6764 10.3972 88.6296 9.18417 87.0593 9.18417C85.4891 9.18417 84.4423 10.3972 84.4423 11.9567C84.4423 13.5163 85.6636 14.7293 87.0593 14.7293Z" fill="white"></path>
  <path d="M96.4808 15.5957L93.166 10.2238V15.5957H92.1191V8.49097H93.166L96.4808 13.8628V8.49097H97.5277V15.5957H96.4808Z" fill="white"></path>
  <defs>
    <linearGradient id="paint0_linear_846_7545" x1="37.8273" y1="24.0866" x2="8.52012" y2="24.0866" gradientUnits="userSpaceOnUse">
      <stop stop-color="#FFDF00"></stop>
      <stop offset="0.4087" stop-color="#FBBC0E"></stop>
      <stop offset="0.7754" stop-color="#F9A418"></stop>
      <stop offset="1" stop-color="#F89B1C"></stop>
    </linearGradient>
    <linearGradient id="paint1_linear_846_7545" x1="30.1114" y1="26.9471" x2="2.63094" y2="54.6154" gradientUnits="userSpaceOnUse">
      <stop stop-color="#EE4447"></stop>
      <stop offset="1" stop-color="#C5166C"></stop>
    </linearGradient>
    <linearGradient id="paint2_linear_846_7545" x1="2.5289" y1="-6.0525" x2="24.7945" y2="16.3654" gradientUnits="userSpaceOnUse">
      <stop stop-color="#269E6F"></stop>
      <stop offset="0.05089" stop-color="#2BA06F"></stop>
      <stop offset="0.4663" stop-color="#53B26B"></stop>
      <stop offset="0.7971" stop-color="#6BBD69"></stop>
      <stop offset="1" stop-color="#74C168"></stop>
    </linearGradient>
  </defs>
</svg>
