<?xml version="1.0" encoding="UTF-8"?>
<svg xmlns="http://www.w3.org/2000/svg" width="44" height="40" viewBox="0 0 44 40" fill="none">
  <path d="M43.6065 6.8447L40.8565 9.34322L29.2744 19.9034L40.8565 30.2903L43.5438 32.6944V32.6948C43.8475 32.0792 44.0033 31.4012 43.9994 30.7147V8.71427C43.9998 8.07025 43.8661 7.43358 43.6066 6.84433L43.6065 6.8447Z" fill="#132F2A"></path>
  <path d="M26.9498 22.0403L25.1896 23.6434C24.3197 24.4428 23.1814 24.8865 21.9997 24.8865C20.818 24.8865 19.6797 24.4428 18.8098 23.6434L17.0654 22.0403L5.70336 32.2862L2.7334 34.9735C3.349 35.2772 4.02702 35.433 4.71352 35.4291H39.2855C40.0004 35.4302 40.7054 35.2632 41.3442 34.9419L38.3743 32.2862L26.9498 22.0403Z" fill="#132F2A"></path>
  <path d="M14.7403 19.9031L3.143 9.21721L0.45572 6.73413C0.151953 7.34974 -0.00379121 8.02775 7.00818e-05 8.71425V30.7146C-0.000982255 31.4295 0.165989 32.1345 0.487293 32.7733L3.14296 30.3688L14.7403 19.9031Z" fill="#132F2A"></path>
  <path d="M20.9317 21.3174C21.2208 21.5899 21.6028 21.7418 22.0001 21.7418C22.3975 21.7418 22.7796 21.5899 23.0686 21.3174L41.4708 4.53423H41.4704C40.7941 4.18836 40.0459 4.00527 39.2862 4H4.71415C3.99437 3.99895 3.28403 4.16592 2.63965 4.48723L5.5314 7.1429L20.9317 21.3174Z" fill="#132F2A"></path>
</svg>
