<?xml version="1.0" encoding="UTF-8"?>
<svg xmlns="http://www.w3.org/2000/svg" width="40" height="40" viewBox="0 0 40 40" fill="none">
  <g clip-path="url(#clip0_844_7124)">
    <path d="M20.0028 0.000163176C14.6986 0.000163176 9.61178 2.10727 5.86075 5.85798C2.11012 9.60894 0.00292969 14.6964 0.00292969 20.0001C0.00292969 25.3038 2.11004 30.3911 5.86075 34.1422C9.6117 37.8928 14.6992 40 20.0028 40C25.3065 40 30.3939 37.8929 34.1449 34.1422C37.8956 30.3912 40.0028 25.3038 40.0028 20.0001C40.0028 16.4892 39.0787 13.0405 37.3232 10C35.5678 6.95954 33.0432 4.43496 30.0027 2.67952C26.9622 0.924085 23.5137 0.000163176 20.0028 0.000163176ZM18.0028 36.3285C17.6093 36.3326 17.2318 36.1741 16.9588 35.8907C16.6862 35.6072 16.5424 35.2236 16.5615 34.8307C16.5806 34.4379 16.7608 34.0699 17.0599 33.8145L18.3029 32.743C15.2108 32.3295 12.3747 30.8059 10.3227 28.456C8.27099 26.1062 7.14315 23.0905 7.15017 19.9711C7.15686 16.8515 8.29785 13.8409 10.36 11.5C10.7034 11.1426 11.2072 10.9885 11.6916 11.0931C12.1759 11.1977 12.5717 11.5459 12.7369 12.0131C12.9024 12.4803 12.8137 12.9998 12.5028 13.3859C10.1575 16.0485 9.3989 19.7551 10.5095 23.1255C11.6201 26.4959 14.4336 29.0251 17.9027 29.7716L17.0599 29.0429C16.6721 28.7087 16.492 28.1928 16.5876 27.6899C16.683 27.1868 17.0398 26.7729 17.5232 26.6041C18.0067 26.4355 18.5437 26.5372 18.9314 26.8717L22.9458 30.343C23.2631 30.6143 23.4458 31.011 23.4458 31.4288C23.4458 31.8465 23.2631 32.2432 22.9458 32.5146L18.9314 35.9858C18.6725 36.2071 18.3434 36.3285 18.0028 36.3285ZM28.5743 28.9857C28.2271 28.9854 27.8919 28.8581 27.6314 28.6285C27.3476 28.3782 27.1747 28.0255 27.1505 27.6479C27.1266 27.2704 27.2532 26.8986 27.5029 26.6141C29.8482 23.9515 30.6068 20.2449 29.4962 16.8745C28.3856 13.5041 25.5721 10.9749 22.103 10.2285L22.9458 10.9571C23.3335 11.2913 23.5137 11.8072 23.418 12.3101C23.3227 12.8133 22.9659 13.2271 22.4824 13.3959C21.999 13.5646 21.462 13.4628 21.0743 13.1283L17.0599 9.65706C16.7426 9.3857 16.5599 8.98901 16.5599 8.57126C16.5599 8.15351 16.7426 7.75684 17.0599 7.48546L21.0743 4.01418C21.462 3.67967 21.999 3.57795 22.4824 3.74664C22.9659 3.91533 23.3227 4.32923 23.418 4.83244C23.5137 5.33532 23.3335 5.85122 22.9458 6.18543L21.7028 7.25686C24.8128 7.65897 27.669 9.18356 29.7334 11.5442C31.7978 13.9049 32.9283 16.9384 32.9123 20.0741C32.896 23.2102 31.7343 26.232 29.6456 28.5712C29.3622 28.8531 28.9735 29.0035 28.5743 28.9857Z" fill="#132F2A"></path>
  </g>
  <defs>
    <clipPath id="clip0_844_7124">
      <rect width="40" height="40" fill="white"></rect>
    </clipPath>
  </defs>
</svg>
