<?xml version="1.0" encoding="UTF-8"?>
<svg xmlns="http://www.w3.org/2000/svg" width="44" height="40" viewBox="0 0 44 40" fill="none">
  <path d="M41.999 10.6973C42.0002 9.34027 41.4614 8.03838 40.5018 7.07848C39.5419 6.11889 38.24 5.58005 36.883 5.58133H32.697V3.25567C32.696 2.39263 32.3525 1.56508 31.742 0.954646C31.1319 0.344192 30.3043 0.000956799 29.441 0H14.558C13.6946 0.000934394 12.8671 0.34416 12.257 0.954646C11.6465 1.5651 11.303 2.39263 11.302 3.25567V5.58133H7.116C5.75895 5.58008 4.45706 6.1189 3.49715 7.07848C2.53756 8.03838 1.99873 9.34027 2 10.6973V18.1393C1.99876 19.4964 2.53758 20.7983 3.49715 21.7582C4.45706 22.7178 5.75895 23.2566 7.116 23.2553H13.1627V20.93C13.1627 20.4313 13.4286 19.9707 13.8603 19.7215C14.292 19.4724 14.824 19.4724 15.2557 19.7215C15.6873 19.9707 15.9533 20.4313 15.9533 20.93V23.2556H28.0464L28.0461 20.93C28.0461 20.4313 28.3121 19.9707 28.7438 19.7215C29.1755 19.4724 29.7075 19.4724 30.1391 19.7215C30.5708 19.9707 30.8368 20.4313 30.8368 20.93V23.2556L36.8835 23.2553C38.2405 23.2566 39.5424 22.7177 40.5023 21.7582C41.4619 20.7983 42.0007 19.4964 41.9995 18.1393L41.999 10.6973ZM14.0923 3.25567C14.0923 2.99871 14.3007 2.79066 14.5577 2.79066H29.4415H29.4411C29.5645 2.79066 29.6828 2.83956 29.77 2.92677C29.8573 3.01397 29.9065 3.13233 29.9065 3.25567V5.58133H14.0922L14.0923 3.25567Z" fill="#132F2A"></path>
  <path d="M7.11602 25.1163C5.98261 25.1141 4.86603 24.8397 3.86035 24.3162V34.884C3.85942 36.2411 4.39793 37.5429 5.35782 38.5029C6.31741 39.4624 7.6193 40.0013 8.97667 40H35.0223C36.3796 40.0013 37.6816 39.4624 38.6412 38.5029C39.6011 37.5429 40.1396 36.2411 40.1387 34.884V24.3162C39.133 24.8397 38.0164 25.1141 36.883 25.1163H30.8363V26.5116C30.8363 27.0099 30.5704 27.4706 30.1387 27.7197C29.707 27.9692 29.175 27.9692 28.7433 27.7197C28.3117 27.4706 28.0457 27.0099 28.0457 26.5116V25.1163H15.9533V26.5116C15.9533 27.0099 15.6873 27.4706 15.2557 27.7197C14.824 27.9692 14.292 27.9692 13.8603 27.7197C13.4287 27.4706 13.1627 27.0099 13.1627 26.5116V25.1163H7.11602Z" fill="#132F2A"></path>
</svg>
