<?xml version="1.0" encoding="UTF-8"?>
<svg xmlns="http://www.w3.org/2000/svg" width="40" height="40" viewBox="0 0 40 40" fill="none">
  <path d="M12.3115 3.52165V21.7767C12.3115 22.6135 12.9961 23.2981 13.8329 23.2981H27.9889C27.984 23.3482 27.981 23.3987 27.981 23.4501V27.3292C27.981 28.166 28.465 28.3664 29.0567 27.7748L33.5338 23.2978H38.4778C39.3146 23.2978 39.9992 22.6132 39.9992 21.7764L39.9989 3.52139C39.9987 2.6846 39.3141 2 38.4775 2H13.8329C12.9963 2 12.3117 2.6846 12.3117 3.52139L12.3115 3.52165ZM29.073 12.5728C29.073 11.2704 30.1286 10.2148 31.431 10.2148C32.7334 10.2148 33.789 11.2704 33.789 12.5728C33.789 13.8752 32.7334 14.9308 31.431 14.9308C30.1286 14.9308 29.073 13.8752 29.073 12.5728ZM18.8772 12.5728C18.8772 11.2704 19.9328 10.2148 21.2349 10.2148C22.5373 10.2148 23.5929 11.2707 23.5929 12.5728C23.5929 13.8752 22.5371 14.9308 21.2349 14.9308C19.9328 14.9308 18.8772 13.8752 18.8772 12.5728Z" fill="#132F2A"></path>
  <path d="M26.4695 27.0586V29.4613C26.4695 30.3484 26.3156 31.4165 26.127 31.8347C25.9387 32.2531 24.222 32.5955 23.3352 32.5955L12.2159 32.5957C11.3288 32.5957 10.6049 32.6185 10.6069 32.6463C10.6091 32.674 10.6105 33.4738 10.6105 34.3609V35.0143C10.6105 35.9015 10.5018 36.8606 10.3687 37.1459C10.2354 37.4312 9.02161 36.5595 8.39427 35.9324L6.19834 33.7365C5.57097 33.1091 4.33197 32.5959 3.44503 32.5959H3.13392C2.24679 32.5959 1.17868 32.4419 0.760474 32.2536C0.342069 32.0653 0 30.3484 0 29.4612V14.4322C0 13.545 0.342289 11.8284 0.760725 11.6403C1.17913 11.452 2.24723 11.2978 3.13417 11.2978H10.3448V23.8326C10.3448 24.7197 11.0706 25.4456 11.9578 25.4456H26.4708L26.4705 27.0586L26.4695 27.0586Z" fill="#132F2A"></path>
</svg>
