<?xml version="1.0" encoding="UTF-8"?>
<svg xmlns="http://www.w3.org/2000/svg" width="40" height="40" viewBox="0 0 40 40" fill="none">
  <g clip-path="url(#clip0_844_7142)">
    <path d="M24.0045 19.1582C23.0411 20.2639 21.6283 20.967 20.0517 20.967C18.4729 20.967 17.058 20.2645 16.0932 19.1594C14.8847 20.2448 14.1182 21.8124 14.1182 23.5587V24.6003C14.1182 25.492 14.8515 26.2169 15.7432 26.2169H24.3603C25.252 26.2169 25.9769 25.4917 25.9769 24.6003V23.5587C25.9769 21.8119 25.2122 20.2437 24.0049 19.1583L24.0045 19.1582Z" fill="#132F2A"></path>
    <path d="M20.0506 19.2998C22.0256 19.2998 23.634 17.6914 23.634 15.7082C23.634 13.7332 22.0256 12.1248 20.0506 12.1248C18.0674 12.1248 16.459 13.7332 16.459 15.7082C16.459 17.6914 18.0674 19.2998 20.0506 19.2998Z" fill="#132F2A"></path>
    <path d="M38.1426 14.975L35.0093 15.3165C34.7342 14.4249 34.3675 13.5582 33.9426 12.6832L36.401 10.7664C36.7842 10.4663 37.0176 10.0165 37.0508 9.53314C37.0841 9.04981 36.9009 8.5665 36.559 8.22494L31.8258 3.49989C31.1342 2.79983 29.884 2.88325 29.284 3.64981L27.3174 6.10821C26.4925 5.67475 25.6256 5.3166 24.6925 5.00824L25.0758 1.9082C25.1423 1.42487 24.9923 0.941551 24.6674 0.574919C24.3425 0.208264 23.8842 0 23.3924 0H16.7007C16.2174 0 15.7507 0.208264 15.4339 0.574919C15.109 0.941574 14.959 1.42487 15.0174 1.9082L15.3674 5.04151C14.4757 5.31658 13.6091 5.67477 12.7258 6.10821L10.8176 3.65833C10.2091 2.88328 8.96774 2.79986 8.27579 3.49993L3.54254 8.22498C3.20098 8.56655 3.0175 9.04987 3.05105 9.53319C3.07614 10.0165 3.31765 10.4666 3.70093 10.7665L6.15933 12.7331C5.72557 13.5582 5.36741 14.4333 5.05061 15.3583L1.959 14.975C0.917372 14.8417 0.0507812 15.65 0.0507812 16.6584V23.35C0.0507812 24.3584 0.934009 25.1667 1.959 25.0334L5.08388 24.6834C5.36711 25.575 5.72561 26.4501 6.15879 27.3252L3.70039 29.242C3.31711 29.5337 3.07529 29.9919 3.05051 30.4753C3.01726 30.9586 3.20043 31.4338 3.542 31.7835L8.27525 36.5085C8.96685 37.2086 10.2085 37.1252 10.8171 36.3501L12.7836 33.8917C13.6091 34.3252 14.4757 34.6833 15.4092 35.0001L15.0174 38.0918C14.9591 38.5751 15.109 39.0669 15.434 39.4335C15.7507 39.7917 16.2174 40 16.7008 40H23.3925C23.8843 40 24.3425 39.7917 24.6675 39.4332C24.9924 39.0666 25.1423 38.5748 25.0758 38.0915L24.7343 34.9666C25.6259 34.6833 26.4926 34.3248 27.3761 33.8917L29.2844 36.3501C29.8844 37.1251 31.1342 37.2085 31.8262 36.5085L36.5594 31.7834C36.901 31.4334 37.0845 30.9585 37.0512 30.4752C37.018 29.9919 36.7846 29.5418 36.4013 29.2419L33.9429 27.2669C34.3676 26.4501 34.7343 25.5832 35.051 24.6502L38.1426 25.0335C38.2094 25.0416 38.2844 25.0501 38.3509 25.0501C38.801 25.0501 39.226 24.8751 39.5424 24.5501C39.8677 24.2334 40.0508 23.8084 40.0508 23.3501V16.6584C40.0508 15.6501 39.1676 14.8417 38.1426 14.9751L38.1426 14.975ZM20.0509 31.7001C13.6008 31.7001 8.35083 26.45 8.35083 20.0001C8.35083 13.55 13.6007 8.30858 20.0509 8.30858C26.501 8.30858 31.7424 13.5502 31.7424 20.0001C31.7424 26.45 26.5007 31.7001 20.0509 31.7001Z" fill="#132F2A"></path>
  </g>
  <defs>
    <clipPath id="clip0_844_7142">
      <rect width="40" height="40" fill="white"></rect>
    </clipPath>
  </defs>
</svg>
