<?xml version="1.0" encoding="UTF-8"?>
<svg xmlns="http://www.w3.org/2000/svg" width="40" height="40" viewBox="0 0 40 40" fill="none">
  <path d="M26.6095 23.524L26.2033 19.6213H26.2036C26.7279 18.8105 27.1148 17.9187 27.3486 16.9817C28.0511 16.4497 28.4573 15.3331 28.7658 14.2404C29.2329 12.5917 29.172 11.5034 28.6196 10.8127L28.6199 10.813C28.5417 10.7167 28.4531 10.6297 28.3559 10.5529L28.3964 10.358C28.8879 7.40141 28.5953 5.21255 27.5273 3.86014C27.1279 3.33918 26.5843 2.94654 25.9639 2.7313C25.4262 2.00979 24.7356 1.41601 23.9415 0.993077C22.6031 0.213782 21.0515 -0.120461 19.5107 0.0387197C18.8929 0.0687471 18.2822 0.183476 17.6955 0.379786C17.0145 0.612356 16.3692 0.93926 15.7785 1.35061C15.0717 1.79847 14.4247 2.33499 13.8536 2.94661C12.8033 3.97806 12.0607 5.28167 11.7095 6.7111C11.4316 7.91362 11.4316 9.16371 11.7095 10.3662L11.7421 10.5489H11.7418C11.6495 10.6223 11.5651 10.7053 11.49 10.7965C10.9175 11.4829 10.8688 12.5795 11.3356 14.2321C11.6401 15.3287 12.0421 16.4454 12.7449 16.9814V16.9816C12.9769 17.9409 13.3667 18.855 13.8984 19.6864L13.4922 23.5243C10.7022 24.2795 1 27.7191 1 38.9847C1 39.2541 1.10708 39.5125 1.29745 39.7028C1.48781 39.8932 1.74616 40 2.01527 40H38.0698C38.3389 40 38.5973 39.8932 38.7876 39.7028C38.978 39.5125 39.0851 39.2541 39.0851 38.9847C39.0851 27.7195 29.3827 24.2836 26.6088 23.5243L26.6095 23.524ZM20.0428 25.5101L20.7575 26.0747L20.0997 27.5528C20.0762 27.6066 20.0569 27.6622 20.0428 27.7191C20.0292 27.6678 20.0116 27.6177 19.9901 27.569L19.3323 26.0908L20.0428 25.5101ZM17.5411 28.897L15.4497 24.1778L15.7177 21.741V21.7413C16.3893 22.2991 17.1536 22.7347 17.9757 23.0285C18.4646 23.2025 18.9737 23.3129 19.4904 23.3577L19.4134 23.4104L17.4519 24.9659C17.084 25.2551 16.9616 25.7582 17.1553 26.184L17.9675 27.9709L17.5411 28.897ZM21.3422 31.6096H21.3425C21.1929 31.947 20.9181 32.213 20.5759 32.3515C20.234 32.49 19.8516 32.49 19.5097 32.3515C19.1675 32.213 18.8927 31.947 18.7432 31.6096L18.6497 31.3986L19.9898 28.3771H19.9901C20.0116 28.3284 20.0292 28.2783 20.0428 28.2267C20.0567 28.2768 20.0742 28.3256 20.0955 28.3729L21.4317 31.4025L21.3422 31.6096ZM22.5606 28.897L22.1544 27.967L22.9665 26.18H22.9668C23.1606 25.7542 23.0382 25.2509 22.6702 24.9616L20.7088 23.4061L20.6235 23.3492V23.3495C21.1184 23.3013 21.6053 23.1923 22.0733 23.0246C22.9045 22.7186 23.6756 22.2691 24.3514 21.6966L24.6194 24.1778L22.5606 28.897Z" fill="#132F2A"></path>
</svg>
