<?xml version="1.0" encoding="UTF-8"?>
<svg xmlns="http://www.w3.org/2000/svg" width="40" height="40" viewBox="0 0 40 40" fill="none">
  <g clip-path="url(#clip0_275_9770)">
    <path d="M39.9958 11.3777L36.5437 7.92558C36.0237 7.41921 35.6107 7.59236 35.6107 8.32545V9.65834H29.7192C28.9861 9.65834 28.3863 9.05854 28.3863 8.32545C28.3863 7.59236 28.9861 6.99256 29.7192 6.99256H32.385V4.32679C32.385 2.12752 30.5856 0.328125 28.3863 0.328125H24.3876V1.66101C24.3876 2.3941 23.7878 2.9939 23.0548 2.9939H17.7232C16.9901 2.9939 16.3903 2.3941 16.3903 1.66101V0.328125H12.3917C10.1924 0.328125 8.393 2.12752 8.393 4.32679V20.3214H11.0588C11.7919 20.3214 12.3917 20.9212 12.3917 21.6543C12.3917 22.3874 11.7919 22.9872 11.0588 22.9872H5.16726V21.6543C5.16726 20.9212 4.74061 20.7481 4.22083 21.2678L0.76873 24.7199C0.248965 25.2397 0.248965 26.0927 0.76873 26.5994L4.22083 30.0515C4.7406 30.5713 5.16726 30.3981 5.16726 29.665V28.3321H11.0588C11.7919 28.3321 12.3917 28.9319 12.3917 29.665C12.3917 30.3981 11.7919 30.9979 11.0588 30.9979H8.393V36.3295C8.393 38.5287 10.1924 40.3281 12.3917 40.3281H28.3863C30.5856 40.3281 32.385 38.5287 32.385 36.3295V17.6553H29.7192C28.9861 17.6553 28.3863 17.0555 28.3863 16.3224C28.3863 15.5894 28.9861 14.9896 29.7192 14.9896H35.6107V16.3224C35.6107 17.0555 36.0374 17.2287 36.5571 16.7089L40.0092 13.2568C40.5156 12.7504 40.5156 11.8971 39.9959 11.3774L39.9958 11.3777ZM21.7216 37.6493H19.0558C18.3227 37.6493 17.7229 37.0495 17.7229 36.3164C17.7229 35.5833 18.3227 34.9835 19.0558 34.9835H21.7216C22.4547 34.9835 23.0545 35.5833 23.0545 36.3164C23.0545 37.0495 22.4547 37.6493 21.7216 37.6493ZM18.3894 17.656H22.388C24.2272 17.656 25.7202 19.149 25.7202 20.9882V22.3211C25.7202 24.1603 24.2272 25.6533 22.388 25.6533H21.7216C21.7216 26.3864 21.1218 26.9862 20.3887 26.9862C19.6556 26.9862 19.0558 26.3864 19.0558 25.6533H18.3894C16.5501 25.6533 15.0571 24.1603 15.0571 22.3211C15.0571 21.588 15.6569 20.9882 16.39 20.9882C17.1231 20.9882 17.7229 21.588 17.7229 22.3211C17.7229 22.6811 18.0293 22.9875 18.3894 22.9875H22.388C22.748 22.9875 23.0545 22.6811 23.0545 22.3211V20.9882C23.0545 20.6282 22.748 20.3217 22.388 20.3217H18.3894C16.5501 20.3217 15.0571 18.8288 15.0571 16.9895V15.6566C15.0571 13.8174 16.5501 12.3244 18.3894 12.3244H19.0558C19.0558 11.5913 19.6556 10.9915 20.3887 10.9915C21.1218 10.9915 21.7216 11.5913 21.7216 12.3244H22.388C24.2272 12.3244 25.7202 13.8174 25.7202 15.6566C25.7202 16.3897 25.1204 16.9895 24.3873 16.9895C23.6543 16.9895 23.0545 16.3897 23.0545 15.6566C23.0545 15.2966 22.748 14.9902 22.388 14.9902H18.3894C18.0293 14.9902 17.7229 15.2966 17.7229 15.6566V16.9895C17.7229 17.3495 18.0293 17.656 18.3894 17.656Z" fill="#132F2A"></path>
  </g>
  <defs>
    <clipPath id="clip0_275_9770">
      <rect width="40" height="40" fill="white"></rect>
    </clipPath>
  </defs>
</svg>
