<?xml version="1.0" encoding="UTF-8"?>
<svg xmlns="http://www.w3.org/2000/svg" width="40" height="40" viewBox="0 0 40 40" fill="none">
  <g clip-path="url(#clip0_168_12664)">
    <path d="M26.1088 13.4211V10.4828C26.028 6.76621 23.9987 3.36601 20.7658 1.53038C17.533 -0.304722 13.5731 -0.304722 10.3402 1.53038C7.10742 3.36584 5.07771 6.76603 4.99687 10.4828V13.4211C3.67163 13.4211 2.40082 13.9475 1.46355 14.8847C0.526635 15.8216 0 17.0928 0 18.418V35.1575V35.1572C0 36.4827 0.526662 37.7536 1.46355 38.6905C2.40082 39.6278 3.67163 40.1541 4.99687 40.1541H26.1086C27.4339 40.1541 28.7051 39.6277 29.642 38.6905C30.5792 37.7536 31.1055 36.4828 31.1055 35.1572V18.4177C31.1055 17.0924 30.5792 15.8213 29.642 14.8843C28.7051 13.9471 27.4339 13.4208 26.1086 13.4208L26.1088 13.4211ZM17.549 29.5958C17.549 30.31 17.168 30.9698 16.5497 31.3271C15.9314 31.684 15.1694 31.684 14.5512 31.3271C13.9328 30.9698 13.5519 30.31 13.5519 29.5958V23.9744C13.5519 23.2605 13.9328 22.6007 14.5512 22.2435C15.1695 21.8866 15.9314 21.8866 16.5497 22.2435C17.1681 22.6007 17.549 23.2605 17.549 23.9744V29.5958ZM22.1112 13.4211L8.99446 13.4215V10.4832C9.05789 8.18308 10.3217 6.08439 12.3249 4.95233C14.328 3.82054 16.7776 3.82054 18.7808 4.95233C20.7839 6.08448 22.0478 8.18308 22.1112 10.4832V13.4211Z" fill="#132F2A"></path>
  </g>
  <defs>
    <clipPath id="clip0_168_12664">
      <rect width="40" height="40" fill="white"></rect>
    </clipPath>
  </defs>
</svg>
