<?xml version="1.0" encoding="UTF-8"?>
<svg xmlns="http://www.w3.org/2000/svg" width="40" height="40" viewBox="0 0 40 40" fill="none">
  <g clip-path="url(#clip0_168_12670)">
    <path d="M33.5597 0.223877H5.5605C2.25247 0.223877 -0.439453 2.9158 -0.439453 6.22383V34.2239C-0.439453 37.532 2.25247 40.2239 5.5605 40.2239H33.5606C36.8686 40.2239 39.5606 37.532 39.5606 34.2239L39.5602 6.22383C39.5602 2.9158 36.8683 0.223877 33.5603 0.223877H33.5597ZM11.4542 33.9076L5.66413 31.0138L7.45409 27.4359L9.66422 28.5418L12.7703 22.3319L16.3482 24.1219L11.4542 33.9076ZM11.4542 19.9072L5.66413 17.0133L7.45409 13.4354L9.66422 14.5413L12.7703 8.33145L16.3482 10.1214L11.4542 19.9072ZM33.5597 30.2237H20.5595V26.2236H33.5597V30.2237ZM33.5597 16.2232H20.5595L20.5599 12.2234H33.5592L33.5597 16.2232Z" fill="#132F2A"></path>
  </g>
  <defs>
    <clipPath id="clip0_168_12670">
      <rect width="40" height="40" fill="white"></rect>
    </clipPath>
  </defs>
</svg>
