<?xml version="1.0" encoding="UTF-8"?>
<svg xmlns="http://www.w3.org/2000/svg" width="40" height="40" viewBox="0 0 40 40" fill="none">
  <path d="M0 9.58928V31.1032C0 32.3532 0.701389 33.5337 1.875 33.9712C7.91667 36.2282 13.9583 34.6865 20 33.1448C25.5417 31.7351 31.0833 30.3184 36.6181 31.8323C38.2153 32.2698 40 31.1726 40 29.5129V8.00595C40 6.75595 39.2986 5.57539 38.125 5.13789C32.0833 2.88095 26.0417 4.42261 20 5.96428C14.4583 7.374 8.91667 8.78372 3.38194 7.26984C1.77778 6.83234 0 7.92956 0 9.58928ZM20 26.2212C16.9306 26.2212 14.4444 23.2351 14.4444 19.5546C14.4444 15.874 16.9306 12.8879 20 12.8879C23.0694 12.8879 25.5556 15.874 25.5556 19.5546C25.5556 23.2351 23.0694 26.2212 20 26.2212ZM4.44444 26.2212C6.89583 26.2212 8.88889 28.2143 8.88889 30.6657H4.44444V26.2212ZM8.88889 11.7768C8.88889 14.2282 6.89583 16.2212 4.44444 16.2212V11.7768H8.88889ZM35.5556 22.8879V27.3323H31.1111C31.1111 24.8809 33.1042 22.8879 35.5556 22.8879ZM31.1111 8.44345H35.5556V12.8879C33.1042 12.8879 31.1111 10.8948 31.1111 8.44345Z" fill="#132F2A"></path>
</svg>
