<?xml version="1.0" encoding="UTF-8"?>
<svg xmlns="http://www.w3.org/2000/svg" width="40" height="40" viewBox="0 0 40 40" fill="none">
  <g clip-path="url(#clip0_275_9779)">
    <path d="M13.1114 35.1251C13.1114 35.6762 13.558 36.1228 14.1091 36.1228H29.4077C29.9588 36.1228 30.4054 35.6762 30.4054 35.1251C30.4054 34.574 29.9588 34.1274 29.4077 34.1274H29.5196C26.0303 33.6889 25.7437 31.3531 25.7231 30.8381H37.3376C38.5736 30.8381 39.5809 29.8595 39.6286 28.6348H39.6299V28.5858C39.6302 28.5719 39.6309 28.5584 39.6309 28.5445L39.6305 28.3539C39.6305 28.3401 39.6296 28.3265 39.6296 28.3126V24.8308C39.6296 24.8201 39.6305 24.8095 39.6305 24.7988V5.60315C39.6305 4.16789 38.4629 3 37.0274 3L30.126 3.00032H6.43554C5.00028 3.00032 3.83239 4.16796 3.83239 5.60347V14.9941H5.97929V5.60347C5.97929 5.35196 6.18405 5.1472 6.43556 5.1472H37.027C37.2785 5.1472 37.4833 5.35196 37.4833 5.60347L37.4836 24.7992C37.4836 25.0507 37.2788 25.2554 37.0273 25.2554H12.5956V30.8384H17.7397C17.7187 31.3534 17.4324 33.6892 13.9431 34.1278H14.1102C13.5588 34.1278 13.1121 34.5744 13.1121 35.1251L13.1114 35.1251ZM20.4569 28.2707C20.4569 27.5675 21.027 26.9977 21.7299 26.9977C22.4332 26.9977 23.003 27.5678 23.003 28.2707C23.003 28.974 22.4329 29.5438 21.7299 29.5438C21.027 29.5438 20.4569 28.974 20.4569 28.2707ZM-0.369133 19.0732V33.373C-0.369133 34.8915 0.861987 36.1229 2.3807 36.1229H8.32028C9.83875 36.1229 11.0701 34.8917 11.0701 33.373L11.0704 19.0732C11.0704 17.5548 9.83932 16.3234 8.3206 16.3234H2.38103C0.862309 16.3234 -0.369141 17.5542 -0.369141 19.0732H-0.369133ZM4.23935 33.4845C4.23935 32.8705 4.73722 32.3733 5.35053 32.3733C5.96385 32.3733 6.46171 32.8708 6.46171 33.4845C6.46171 34.0984 5.96417 34.5956 5.35053 34.5956C4.73658 34.5956 4.23935 34.0981 4.23935 33.4845ZM28.7264 21.8691C28.7286 21.8853 28.7299 21.902 28.7299 21.9191V22.7127C28.7299 22.9281 28.5552 23.1029 28.3398 23.1029H26.329C26.1136 23.1029 25.9388 22.9281 25.9388 22.7127V14.741L25.9572 14.722C25.9681 14.711 25.9788 14.6994 25.9894 14.6878C25.9849 14.6923 25.981 14.6975 25.9765 14.702C25.9907 14.6872 26.0568 14.6217 26.1355 14.5424L27.8603 12.8176L27.8626 12.8198L28.71 11.9724L28.7264 21.8691ZM28.7264 21.8691C28.7286 21.8853 28.7299 21.902 28.7299 21.9191V22.7127C28.7299 22.9281 28.5552 23.1029 28.3398 23.1029H26.329C26.1136 23.1029 25.9388 22.9281 25.9388 22.7127V14.741L25.9572 14.722C25.9681 14.711 25.9788 14.6994 25.9894 14.6878C25.9849 14.6923 25.981 14.6975 25.9765 14.702C25.9907 14.6872 26.0568 14.6217 26.1355 14.5424L27.8603 12.8176L27.8626 12.8198L28.71 11.9724L28.7264 21.8691ZM25.1043 15.5759V22.7127C25.1043 22.9281 24.9295 23.1029 24.7141 23.1029H22.7033C22.4879 23.1029 22.3131 22.9281 22.3131 22.7127V18.3383C22.3783 18.2922 22.4408 18.24 22.4985 18.1819L25.1043 15.5759ZM21.4783 18.6002V22.7127C21.4783 22.9281 21.3035 23.1029 21.0881 23.1029H19.0773C18.8619 23.1029 18.6871 22.9281 18.6871 22.7127V17.7327L19.3578 17.062L20.478 18.1822C20.745 18.4492 21.1 18.5975 21.4782 18.6001L21.4783 18.6002ZM15.922 20.4959C15.9549 20.4636 15.9997 20.4191 16.0488 20.3701L17.8516 18.5673V22.7127C17.8516 22.9282 17.6768 23.1029 17.4614 23.1029H15.4507C15.2353 23.1029 15.0605 22.9282 15.0605 22.7127V21.3524L15.7089 20.7039C15.7879 20.6249 15.8357 20.5785 15.8463 20.5685M30.9773 7.76116L30.1693 11.4775C30.1328 11.6458 30.0474 11.8422 29.9274 11.8422C29.8942 11.8422 29.772 11.8283 29.5908 11.6471L28.696 10.7536L28.3954 11.0541L28.3932 11.0512L21.7978 17.6466C21.643 17.8014 21.3915 17.8014 21.2367 17.6466L20.5073 16.9172C20.4954 16.9053 20.4847 16.8927 20.4744 16.8798C20.4615 16.8695 20.449 16.8589 20.437 16.8469L19.4761 15.886L13.8674 21.4947C13.7126 21.6495 13.4611 21.6495 13.3063 21.4947L13.2741 21.4625C13.245 21.4509 13.2173 21.4335 13.1938 21.4099L12.5298 20.746C12.4731 20.6892 12.4518 20.6106 12.464 20.5367C12.4482 20.4184 12.4853 20.2945 12.5763 20.2039L19.1943 13.5859C19.3491 13.4311 19.6006 13.4311 19.7554 13.5859L21.5163 15.3468L27.3517 9.51142C27.3684 9.49466 27.3868 9.48015 27.4052 9.4666L26.5139 8.57665C26.343 8.40608 26.304 8.27097 26.323 8.2068C26.3421 8.14295 26.4475 8.05009 26.6835 7.99914L30.4053 7.19237C30.4733 7.17753 30.5378 7.17012 30.5981 7.17012C30.6984 7.17012 30.8351 7.1914 30.9177 7.29297C31.0002 7.39325 31.0212 7.55997 30.9773 7.76118L30.9773 7.76116Z" fill="#132F2A"></path>
  </g>
  <defs>
    <clipPath id="clip0_275_9779">
      <rect width="40" height="40" fill="white"></rect>
    </clipPath>
  </defs>
</svg>
