<?xml version="1.0" encoding="UTF-8"?>
<svg xmlns="http://www.w3.org/2000/svg" width="44" height="40" viewBox="0 0 44 40" fill="none">
  <g clip-path="url(#clip0_204_6644)">
    <path d="M21.8166 9.97091C21.8166 13.7318 18.7684 18.8824 15.003 18.8824C11.2421 18.8824 8.18945 13.7319 8.18945 9.97091C8.18945 6.20999 11.2377 3.15735 15.003 3.15735C18.7639 3.15735 21.8166 6.20556 21.8166 9.97091Z" fill="#132F2A"></path>
    <path d="M21.0318 9.97088C21.0318 10.1323 21.0273 10.2936 21.0138 10.4505C21.0093 10.5312 21.0004 10.6164 20.9959 10.6971C20.9914 10.7419 20.9869 10.7867 20.9825 10.836C20.978 10.8898 20.9735 11.0646 20.9825 10.8495C20.9645 11.1946 20.8614 11.5577 20.7763 11.8895C20.6866 12.2436 20.579 12.5977 20.4535 12.9384C20.3908 13.1088 20.3235 13.2791 20.2563 13.445C20.328 13.2612 20.2204 13.5212 20.2025 13.566C20.1621 13.6601 20.1173 13.7498 20.0725 13.8439C19.7453 14.5253 19.3508 15.1752 18.8936 15.7804C18.9967 15.6459 18.8711 15.8073 18.8308 15.8566C18.768 15.9328 18.7053 16.009 18.6425 16.0852C18.526 16.2197 18.4094 16.3452 18.2884 16.4707C18.1674 16.5962 18.0419 16.7128 17.9163 16.8293C17.8446 16.8921 17.7729 16.9548 17.7012 17.0176C17.6563 17.0579 17.4277 17.2283 17.5981 17.1028C17.3246 17.3 17.0467 17.4883 16.7463 17.6497L16.5312 17.7572C16.4998 17.7707 16.4684 17.7886 16.4326 17.8021C16.2712 17.8783 16.5581 17.7572 16.4505 17.7976C16.2936 17.8514 16.1412 17.9141 15.9798 17.959C15.8274 18.0038 15.675 18.0396 15.5226 18.0665C15.5316 18.0665 15.4195 18.08 15.4195 18.0845C15.424 18.0576 15.6078 18.0665 15.4464 18.08C15.3523 18.089 15.2536 18.0979 15.1595 18.1024C15.0116 18.1069 14.8637 18.1069 14.7112 18.0934C14.6888 18.0934 14.4916 18.0531 14.4781 18.071C14.5006 18.0441 14.6485 18.0979 14.5319 18.0755C14.4826 18.0665 14.4288 18.0576 14.3795 18.0486C14.2271 18.0172 14.0747 17.9769 13.9268 17.9321C13.8416 17.9052 13.7609 17.8783 13.6802 17.8469C13.6489 17.8334 13.613 17.82 13.5816 17.811C13.4337 17.7572 13.7296 17.8828 13.5727 17.8065C13.2723 17.6631 12.981 17.5062 12.7031 17.3179C12.6358 17.2731 12.5686 17.2238 12.5013 17.1745C12.47 17.1521 12.4431 17.1297 12.4117 17.1073C12.5551 17.2148 12.47 17.1521 12.4386 17.1252C12.2907 17.0042 12.1472 16.8831 12.0083 16.7531C11.7438 16.5066 11.4972 16.2466 11.2686 15.9732C11.2104 15.9059 11.1566 15.8342 11.0983 15.767C11.0086 15.6549 11.0938 15.7625 11.1117 15.7849C11.0804 15.7445 11.0535 15.7042 11.0221 15.6639C10.91 15.5114 10.798 15.3546 10.6949 15.1932C10.4842 14.8704 10.2869 14.5387 10.1076 14.198C10.0225 14.0366 9.94178 13.8708 9.86557 13.7049C9.82971 13.6332 9.79833 13.557 9.76695 13.4853C9.76247 13.4808 9.68627 13.297 9.73558 13.4136C9.7804 13.5211 9.71316 13.3598 9.7042 13.3374C9.56075 12.9832 9.43525 12.6246 9.33214 12.2615C9.23352 11.9164 9.14835 11.5667 9.0856 11.2126C9.07215 11.1274 9.0587 11.0467 9.04525 10.9616C9.04077 10.9257 9.0318 10.8854 9.02732 10.8495C9.03629 11.0512 9.03629 10.9167 9.0318 10.8629C9.01387 10.6881 8.99594 10.5178 8.98698 10.343C8.96905 9.9709 8.97801 9.59436 9.01836 9.22229C9.02284 9.18195 9.02732 9.14161 9.0318 9.10126C9.00939 9.28056 9.02284 9.1685 9.02732 9.12816C9.04525 9.0385 9.0587 8.94885 9.07663 8.8592C9.11249 8.67093 9.15732 8.48714 9.21111 8.30336C9.26041 8.13303 9.31869 7.95821 9.38144 7.79234C9.39489 7.752 9.5204 7.46063 9.43523 7.6489C9.47558 7.55924 9.51592 7.4696 9.56074 7.37995C9.72212 7.05272 9.9059 6.74342 10.1166 6.44306C10.1659 6.37134 10.2197 6.29961 10.2735 6.23238C10.1524 6.39375 10.3228 6.17858 10.3542 6.13824C10.4752 5.9948 10.5962 5.86032 10.7307 5.73032C10.8562 5.60482 10.9817 5.48827 11.1162 5.37172C11.1834 5.31344 11.2552 5.26413 11.3179 5.20138C11.4031 5.12069 11.1655 5.30896 11.3224 5.1969C11.3717 5.16103 11.4165 5.12517 11.4659 5.0938C11.7527 4.8876 12.0576 4.70829 12.3713 4.5514C12.461 4.50657 12.5507 4.46623 12.6403 4.42589C12.6762 4.40796 12.7793 4.36762 12.6179 4.43486C12.6537 4.42141 12.6896 4.40348 12.73 4.39003C12.9137 4.31831 13.102 4.25107 13.2948 4.19727C13.4696 4.14797 13.6444 4.10314 13.8192 4.0628C13.8999 4.04487 13.9761 4.03142 14.0568 4.01797C14.1061 4.00901 14.1554 4.00452 14.2092 3.99556C14.2675 3.98659 14.2496 3.99108 14.1509 4.00452C14.1823 4.00004 14.2137 3.99556 14.2406 3.99556C14.6216 3.95073 15.0071 3.94177 15.3926 3.9597C15.4868 3.96418 15.5764 3.97315 15.6706 3.98211C15.7199 3.98659 16.0023 4.03142 15.7961 3.99556C15.9843 4.02694 16.1771 4.05832 16.3654 4.10314C16.724 4.18831 17.0781 4.30037 17.4188 4.44382C17.2216 4.36313 17.4905 4.47968 17.5309 4.49761C17.6116 4.53347 17.6923 4.57381 17.7685 4.61416C17.9433 4.70381 18.1136 4.80243 18.2795 4.91001C18.4274 5.00414 18.5708 5.10724 18.7143 5.21035C18.7457 5.23276 18.8264 5.30448 18.6964 5.1969C18.7277 5.2238 18.7591 5.24621 18.786 5.26862C18.8622 5.33138 18.9339 5.39413 19.0101 5.4569C19.2881 5.70344 19.5346 5.97688 19.7722 6.25929C19.8619 6.36687 19.7722 6.25929 19.7587 6.23687C19.7812 6.26825 19.8081 6.29963 19.8305 6.331C19.8887 6.41169 19.947 6.4879 20.0008 6.56858C20.1039 6.72099 20.2025 6.88236 20.2922 7.04374C20.3773 7.19615 20.458 7.35752 20.5342 7.51441C20.5566 7.55924 20.5746 7.60407 20.597 7.64889C20.588 7.62648 20.5342 7.49199 20.588 7.62648C20.6239 7.72061 20.6597 7.81026 20.6956 7.9044C20.8211 8.263 20.9197 8.63506 20.987 9.01162C21.0004 9.08334 21.0273 9.28505 21.0049 9.10575C21.0139 9.19988 21.0273 9.28954 21.0363 9.38367C21.0228 9.57194 21.0273 9.77365 21.0318 9.97089C21.0318 10.3833 21.3904 10.7733 21.8163 10.7553C22.2376 10.7374 22.6007 10.4102 22.6007 9.97089C22.5918 8.21818 21.9866 6.55513 20.9018 5.18791C19.8797 3.90585 18.396 2.96905 16.8002 2.58798C15.0789 2.17558 13.2679 2.38178 11.6721 3.14382C10.2018 3.84758 8.95563 5.0758 8.22948 6.53269C7.44951 8.09713 7.2657 9.80501 7.55261 11.5173C7.81708 13.1086 8.46704 14.6686 9.35909 16.0089C10.2287 17.3223 11.3897 18.546 12.8555 19.187C13.5817 19.5053 14.3617 19.698 15.164 19.6667C15.9664 19.6353 16.733 19.4112 17.4457 19.0526C18.8801 18.3309 20.0142 17.0533 20.848 15.704C21.7087 14.3099 22.3004 12.732 22.5156 11.1049C22.5649 10.7283 22.6007 10.3518 22.6007 9.97078C22.6007 9.55838 22.2376 9.16839 21.8163 9.18632C21.3904 9.20425 21.0318 9.53148 21.0318 9.97078L21.0318 9.97088Z" fill="#132F2A"></path>
    <path d="M28.6714 28.3006V33.7694H1.37207V28.3006C1.37207 24.4365 4.4875 21.3077 8.34703 21.3077H9.98319L15.0306 27.7493L20.0332 21.3077H21.6693C25.5334 21.3077 28.6712 24.4366 28.6712 28.3006H28.6714Z" fill="#132F2A"></path>
    <path d="M27.8775 28.3005V33.0655V33.7469L28.662 32.9625H25.932H19.4188H11.5474H4.70692C3.60871 32.9625 2.50149 32.9176 1.40321 32.9625H1.35838C1.61837 33.2224 1.88284 33.4869 2.14284 33.7469V28.4978V28.3005C2.14284 28.1123 2.1518 27.924 2.16525 27.7357C2.17422 27.6326 2.18766 27.5295 2.19663 27.4264C2.17422 27.6371 2.21904 27.2964 2.22801 27.2382C2.30421 26.8302 2.41179 26.4313 2.55972 26.0458C2.57765 25.992 2.69868 25.7141 2.61351 25.9023C2.64937 25.8217 2.68523 25.741 2.72558 25.6603C2.81524 25.472 2.91385 25.2927 3.02143 25.1134C3.12005 24.9431 3.23212 24.7817 3.34418 24.6203C3.36659 24.5889 3.38901 24.5576 3.41142 24.5262C3.52349 24.3693 3.33522 24.6114 3.4159 24.5217C3.48762 24.441 3.55038 24.3558 3.6221 24.2707C3.88658 23.9659 4.17346 23.6879 4.48276 23.4324C4.51862 23.401 4.55897 23.3696 4.59931 23.3427C4.46484 23.4503 4.55 23.3786 4.58138 23.3562C4.66207 23.2979 4.73828 23.2396 4.81896 23.1858C4.99826 23.0648 5.18205 22.9527 5.37032 22.8452C5.52722 22.76 5.6841 22.6793 5.84548 22.6076C5.87686 22.5941 6.06513 22.5135 5.87686 22.5897C5.91272 22.5762 5.94858 22.5583 5.98892 22.5448C6.10099 22.5 6.21306 22.4597 6.32512 22.4193C6.5358 22.3476 6.74649 22.2893 6.96165 22.24C7.0782 22.2131 7.19923 22.1862 7.32026 22.1683C7.3606 22.1593 7.40095 22.1549 7.44129 22.1459C7.48164 22.1414 7.52198 22.1324 7.56233 22.128C7.46371 22.1414 7.44578 22.1414 7.50854 22.1369C7.8268 22.1055 8.14506 22.0876 8.4678 22.0876H9.98289C9.79911 22.0114 9.61532 21.9352 9.42706 21.859C9.99635 22.5852 10.5657 23.3114 11.1349 24.0375C12.0359 25.1896 12.9414 26.3416 13.8424 27.4936C14.0531 27.7626 14.2638 28.0271 14.47 28.296C14.712 28.6008 15.3396 28.6008 15.5772 28.296C16.142 27.5698 16.7024 26.8436 17.2671 26.122C18.1637 24.9655 19.0647 23.8089 19.9612 22.6525C20.1674 22.388 20.3736 22.1235 20.5798 21.8546C20.396 21.9308 20.2122 22.007 20.0239 22.0832H21.5301C21.8439 22.0832 22.1576 22.1011 22.4714 22.128C22.6821 22.1504 22.3011 22.0966 22.5073 22.1325C22.5566 22.1414 22.6103 22.1504 22.6597 22.1594C22.7717 22.1773 22.8793 22.1997 22.9869 22.2266C23.2245 22.2804 23.4576 22.3432 23.6862 22.4238C23.7803 22.4552 23.8744 22.4911 23.9686 22.5269C24.0224 22.5494 24.0806 22.5718 24.1344 22.5942C23.9686 22.5269 24.0986 22.5762 24.1389 22.5987C24.3451 22.6973 24.5468 22.7959 24.7441 22.908C24.9323 23.0155 25.1161 23.1321 25.2909 23.2576C25.3403 23.2935 25.3851 23.3248 25.4344 23.3607C25.5913 23.4728 25.3492 23.2845 25.4389 23.3652C25.533 23.4504 25.6361 23.5266 25.7302 23.6117C26.053 23.8986 26.3488 24.2124 26.6133 24.5486C26.4878 24.3917 26.6133 24.5486 26.6312 24.5755C26.6671 24.6248 26.6985 24.6696 26.7343 24.719C26.7881 24.7996 26.8464 24.8803 26.8957 24.9655C27.0212 25.1672 27.1377 25.3734 27.2453 25.5841C27.2991 25.6917 27.3484 25.7993 27.3977 25.9068C27.3126 25.7231 27.3977 25.9068 27.4112 25.9382C27.4426 26.0144 27.4695 26.0862 27.4964 26.1624C27.577 26.391 27.6443 26.6196 27.7026 26.8527C27.7339 26.9827 27.7608 27.1082 27.7832 27.2382C27.7922 27.2875 27.8012 27.3368 27.8101 27.3906C27.8146 27.4309 27.8236 27.4713 27.8281 27.5116C27.8146 27.404 27.8146 27.3951 27.8236 27.4847C27.8595 27.7627 27.8774 28.0316 27.8774 28.3006C27.8774 28.713 28.236 29.103 28.6618 29.085C29.0832 29.0671 29.4463 28.7399 29.4463 28.3006C29.4373 26.1175 28.505 23.9749 26.8688 22.518C26.0485 21.7873 25.0937 21.2359 24.0537 20.8953C23.1976 20.6129 22.301 20.5232 21.4045 20.5232H20.3511C20.0328 20.5232 19.7145 20.5053 19.4725 20.7653C19.2663 20.9849 19.0914 21.2539 18.9077 21.4915C18.0604 22.5807 17.2132 23.6745 16.366 24.7638C15.7474 25.5572 15.0885 26.3327 14.5057 27.1575C14.4968 27.1709 14.4833 27.1844 14.4744 27.1978H15.5816C14.7344 26.1175 13.8917 25.0372 13.0444 23.9614C12.4662 23.2263 11.8924 22.4866 11.3142 21.7515C11.1259 21.5094 10.9332 21.2674 10.7449 21.0253C10.6373 20.8908 10.5387 20.7205 10.3773 20.6353C10.1487 20.5143 9.92457 20.5277 9.68251 20.5277H8.96529C8.51702 20.5277 8.07323 20.5188 7.62946 20.5636C6.10093 20.7205 4.68887 21.2898 3.48304 22.2401C2.34 23.1411 1.48828 24.3783 0.999666 25.7499C0.663468 26.6868 0.569336 27.673 0.569336 28.6591V33.6169V33.7513C0.569336 34.1772 0.927944 34.5358 1.35379 34.5358H4.08373H10.597H18.4684H25.3089C26.4071 34.5358 27.5143 34.5627 28.6126 34.5358H28.6574C29.0832 34.5358 29.4418 34.1772 29.4418 33.7513V28.9863V28.3049C29.4418 27.8926 29.0832 27.5026 28.6574 27.5205C28.236 27.5339 27.8774 27.8612 27.8774 28.3005L27.8775 28.3005Z" fill="#132F2A"></path>
    <path d="M37.1837 12.943C37.1837 15.8612 34.8169 19.8552 31.8987 19.8552C28.9805 19.8552 26.6182 15.8611 26.6182 12.943C26.6182 10.0249 28.985 7.66248 31.8987 7.66248C34.8213 7.658 37.1837 10.0248 37.1837 12.943Z" fill="#132F2A"></path>
    <path d="M36.3987 12.9431C36.3987 13.0686 36.3942 13.1941 36.3853 13.3196C36.3808 13.3824 36.3763 13.4451 36.3718 13.5124C36.3674 13.5482 36.3405 13.7724 36.3584 13.6558C36.3763 13.5303 36.3449 13.75 36.3405 13.7724C36.3315 13.8307 36.3225 13.8844 36.3091 13.9427C36.2822 14.0862 36.2508 14.2251 36.2149 14.3686C36.1477 14.6465 36.0625 14.9199 35.9639 15.1933C35.9146 15.3278 35.8653 15.4578 35.8115 15.5878C35.8608 15.4578 35.825 15.5564 35.7936 15.6237C35.7622 15.6999 35.7263 15.7716 35.6905 15.8433C35.435 16.3767 35.1302 16.8698 34.7805 17.3449C34.8612 17.2374 34.8029 17.3181 34.7581 17.3718C34.7132 17.4256 34.6684 17.4794 34.6236 17.5287C34.5295 17.6408 34.4308 17.7484 34.3277 17.8515C34.2336 17.9456 34.1395 18.0398 34.0364 18.1294C33.9871 18.1742 33.9377 18.2191 33.8884 18.2594C33.8571 18.2863 33.6867 18.4208 33.7719 18.358C33.8615 18.2908 33.6912 18.4163 33.6733 18.4297C33.6284 18.4611 33.5836 18.4925 33.5388 18.5239C33.4267 18.6001 33.3102 18.6673 33.1892 18.7301C33.1354 18.7614 33.0771 18.7883 33.0233 18.8152C32.9874 18.8332 32.8171 18.8959 32.9247 18.8601C33.0323 18.8287 32.8574 18.8825 32.8216 18.8959C32.7543 18.9183 32.6871 18.9408 32.6244 18.9587C32.5078 18.9945 32.3868 19.0214 32.2702 19.0439C32.2433 19.0483 32.2164 19.0528 32.194 19.0573C32.0909 19.0797 32.3554 19.0439 32.2478 19.0483C32.1806 19.0528 32.1089 19.0618 32.0371 19.0618C31.9251 19.0663 31.8085 19.0663 31.6965 19.0573C31.6606 19.0528 31.6292 19.0528 31.5934 19.0483C31.5351 19.0439 31.5351 19.0125 31.5934 19.0483C31.674 19.0976 31.6203 19.0528 31.5709 19.0439C31.5351 19.0394 31.5037 19.0304 31.4678 19.0259C31.3468 19.0035 31.2303 18.9721 31.1137 18.9363C31.0554 18.9183 30.9972 18.9004 30.9389 18.878C30.9165 18.869 30.8896 18.8556 30.8672 18.8511C30.773 18.8197 31.0151 18.9228 30.8851 18.8601C30.6565 18.7525 30.4368 18.6314 30.2262 18.4925C30.1724 18.4566 30.1186 18.4208 30.0693 18.3804C29.9079 18.2684 30.1365 18.4387 30.0289 18.349C29.9213 18.2594 29.8138 18.1653 29.7062 18.0711C29.5 17.8784 29.3072 17.6722 29.1279 17.457C29.0921 17.4122 29.0517 17.3673 29.0159 17.318C28.9262 17.206 29.0159 17.3136 29.0293 17.336C29.0114 17.3136 28.9934 17.2867 28.9755 17.2643C28.8859 17.1432 28.8007 17.0222 28.7155 16.8922C28.5541 16.6456 28.4062 16.3946 28.2673 16.1346C28.2045 16.0181 28.1462 15.9015 28.0924 15.7805C28.0611 15.7177 28.0342 15.6505 28.0028 15.5878C27.9938 15.5653 27.94 15.4443 27.9804 15.5429C28.0207 15.6371 27.9669 15.516 27.9624 15.4981C27.8548 15.2291 27.7607 14.9557 27.68 14.6778C27.6038 14.4178 27.5411 14.1533 27.4918 13.8843C27.4783 13.8171 27.4693 13.7543 27.4604 13.6871C27.429 13.4854 27.4693 13.7902 27.4559 13.6468C27.4424 13.5123 27.429 13.3733 27.42 13.2388C27.4066 12.952 27.4155 12.6696 27.4424 12.3871C27.4559 12.2302 27.42 12.5082 27.4469 12.3513C27.4604 12.2795 27.4693 12.2123 27.4828 12.1406C27.5097 11.9927 27.5455 11.8447 27.5859 11.7013C27.6262 11.5668 27.6666 11.4368 27.7159 11.3023C27.7248 11.2709 27.81 11.0782 27.7652 11.1768C27.7248 11.2709 27.7652 11.1768 27.7742 11.1634C27.7966 11.1185 27.8145 11.0737 27.8369 11.0289C27.9579 10.7824 28.0969 10.5448 28.2538 10.3206C28.2941 10.2669 28.3345 10.2086 28.3748 10.1548C28.2807 10.2803 28.3748 10.1593 28.4152 10.11C28.5093 9.9979 28.6079 9.89031 28.711 9.78722C28.8052 9.6886 28.9083 9.59894 29.0114 9.50929C29.0562 9.46895 29.101 9.43309 29.1458 9.39723C29.2534 9.30757 29.1458 9.39723 29.1234 9.41068C29.1548 9.38826 29.1862 9.36585 29.2176 9.33895C29.4462 9.1731 29.6927 9.02517 29.9437 8.89966C30.0065 8.86828 30.0692 8.84138 30.132 8.81C30.2575 8.74724 30.0065 8.85483 30.1903 8.78311C30.3292 8.72931 30.4682 8.68001 30.6116 8.63518C30.7372 8.59932 30.8627 8.56346 30.9927 8.53656C31.0599 8.52312 31.1316 8.50967 31.1989 8.49622C31.2616 8.48277 31.4723 8.46484 31.293 8.47829C31.5933 8.45588 31.8937 8.43346 32.194 8.45139C32.2657 8.45588 32.3374 8.46036 32.4092 8.46932C32.4405 8.47381 32.4719 8.47829 32.5033 8.47829C32.6198 8.48726 32.3643 8.45588 32.4764 8.47381C32.6243 8.49622 32.7767 8.52312 32.9247 8.55898C33.1981 8.62174 33.4626 8.71139 33.7181 8.81449C33.5701 8.75622 33.7136 8.81449 33.7719 8.84139C33.8346 8.87276 33.8974 8.89966 33.9557 8.93552C34.0856 9.00276 34.2112 9.07896 34.3367 9.15517C34.4443 9.22241 34.5474 9.29413 34.6505 9.37033C34.767 9.45102 34.6505 9.37033 34.6325 9.3524C34.6549 9.37033 34.6774 9.38826 34.6998 9.40619C34.758 9.4555 34.8208 9.50481 34.8791 9.5586C35.0898 9.74688 35.278 9.95307 35.4618 10.1727C35.5515 10.2803 35.3856 10.0651 35.4977 10.222C35.538 10.2758 35.5784 10.3341 35.6142 10.3879C35.6904 10.5 35.7621 10.6165 35.8294 10.7375C35.8966 10.8586 35.9594 10.9796 36.0177 11.1051C36.0356 11.141 36.049 11.1768 36.067 11.2127C36.0625 11.2082 36.0177 11.0782 36.0446 11.1634C36.0714 11.2396 36.1028 11.3113 36.1297 11.3875C36.2283 11.6609 36.3001 11.9433 36.3539 12.2302C36.3628 12.2885 36.3718 12.3513 36.3808 12.4095C36.3494 12.2078 36.3808 12.4275 36.3852 12.4768C36.3942 12.6292 36.3987 12.7861 36.3987 12.943C36.4032 13.3553 36.7573 13.7453 37.1831 13.7274C37.6045 13.7095 37.9721 13.3823 37.9676 12.943C37.9497 10.1861 36.0311 7.68489 33.3281 7.04382C30.643 6.40729 27.7427 7.69828 26.4965 10.1816C25.869 11.4323 25.7211 12.7905 25.9452 14.1577C26.1469 15.4039 26.6579 16.6322 27.3482 17.6855C28.0385 18.73 28.962 19.7206 30.1274 20.2316C30.7191 20.4916 31.3467 20.653 32.0011 20.6306C32.6556 20.6081 33.2742 20.4288 33.8569 20.142C35.0045 19.5727 35.91 18.5551 36.5734 17.4793C37.2548 16.3811 37.721 15.1349 37.8913 13.8573C37.9317 13.5525 37.9586 13.2477 37.963 12.9384C37.963 12.526 37.5999 12.136 37.1786 12.1539C36.7572 12.1763 36.4031 12.5036 36.3986 12.9429L36.3987 12.9431Z" fill="#132F2A"></path>
    <path d="M31.9434 31.3931H42.4778V27.157C42.4778 24.1626 40.0662 21.7555 37.0718 21.7555H35.8032L31.9437 26.6281L31.9434 31.3931Z" fill="#132F2A"></path>
    <path d="M31.9214 32.1645H35.4896H41.1825H42.4958C42.9217 32.1645 43.2803 31.8059 43.2803 31.38C43.2803 29.9725 43.2848 28.5694 43.2803 27.1619C43.2758 25.6692 42.7379 24.2482 41.7786 23.1096C40.8463 21.9979 39.4656 21.2268 38.0267 21.0251C37.4933 20.9489 36.9733 20.9444 36.4399 20.9444C36.0365 20.9444 35.521 20.8682 35.2252 21.2044C34.7993 21.6885 34.4183 22.222 34.0148 22.7285C33.4007 23.504 32.7866 24.2795 32.1724 25.0505C31.9618 25.315 31.7556 25.5795 31.5449 25.8439C31.3566 26.086 31.1504 26.3012 31.137 26.6329C31.1101 27.3322 31.137 28.0359 31.137 28.7308V31.2276V31.3755C31.137 31.7924 31.5 32.1868 31.9214 32.1644C32.3473 32.1465 32.7059 31.8193 32.7059 31.38V27.2246V26.6284C32.6297 26.8122 32.5535 26.996 32.4772 27.1843C33.6114 25.7544 34.7455 24.3243 35.8796 22.8899C36.0365 22.6882 36.1978 22.491 36.3547 22.2892C36.1709 22.3655 35.9871 22.4417 35.7989 22.5179H36.8433C37.0002 22.5179 37.1616 22.5179 37.3185 22.5223C37.4037 22.5268 37.4843 22.5313 37.5695 22.5403C37.6098 22.5448 37.6502 22.5492 37.6905 22.5537C37.7085 22.5537 37.8116 22.5717 37.7085 22.5537C37.5964 22.5358 37.7309 22.5582 37.7578 22.5627C37.7981 22.5672 37.8385 22.5761 37.8788 22.5851C37.9685 22.603 38.0581 22.621 38.1478 22.6434C38.2822 22.6748 38.4212 22.7151 38.5557 22.7599C38.6319 22.7868 38.7081 22.8092 38.7798 22.8406C38.8157 22.8541 38.856 22.872 38.8919 22.8854C38.7977 22.8496 38.8112 22.8496 38.8964 22.8899C39.1743 23.0199 39.4432 23.1634 39.6943 23.3337C39.7615 23.3785 39.8243 23.4234 39.887 23.4682C39.9991 23.5489 39.7884 23.383 39.9363 23.5085C40.0574 23.6071 40.1739 23.7102 40.286 23.8223C40.3891 23.9254 40.4922 24.0285 40.5908 24.1406C40.6446 24.1988 40.6939 24.2616 40.7432 24.3199C40.7701 24.3512 40.8284 24.4364 40.7298 24.3019C40.7522 24.3333 40.7746 24.3647 40.8015 24.3961C40.9853 24.6516 41.1466 24.925 41.2856 25.2074C41.317 25.2702 41.3439 25.3329 41.3708 25.3957C41.4201 25.4943 41.3259 25.2657 41.3618 25.3733C41.3753 25.4091 41.3887 25.4495 41.4066 25.4853C41.4604 25.6333 41.5097 25.7902 41.5546 25.9426C41.5949 26.0905 41.6263 26.2384 41.6577 26.3864C41.6666 26.4267 41.698 26.6912 41.6756 26.4805C41.6846 26.5612 41.6935 26.6463 41.7025 26.727C41.7159 26.8884 41.7204 27.0498 41.7204 27.2156V29.3001V31.3889C41.9804 31.1289 42.2449 30.8645 42.5049 30.6045H38.9367H33.2438H31.9305C31.5181 30.6045 31.1281 30.9631 31.146 31.3889C31.1595 31.8058 31.4822 32.1644 31.9215 32.1644L31.9214 32.1645Z" fill="#132F2A"></path>
  </g>
  <defs>
    <clipPath id="clip0_204_6644">
      <rect width="44" height="40" fill="white"></rect>
    </clipPath>
  </defs>
</svg>
