<?xml version="1.0" encoding="UTF-8"?>
<svg xmlns="http://www.w3.org/2000/svg" width="40" height="40" viewBox="0 0 40 40" fill="none">
  <g clip-path="url(#clip0_168_12676)">
    <path d="M39.6698 15.36V37.9863L24.0432 26.8129L23.8301 26.6662L35.6701 18.2129L39.6698 15.36Z" fill="#132F2A"></path>
    <path d="M37.9097 40H1.42969L17.803 28.3063L18.8965 29.0795V29.0798C19.1215 29.2423 19.392 29.3297 19.6697 29.3297C19.9473 29.3297 20.2179 29.2423 20.4429 29.0798L21.5364 28.3066L37.9097 40Z" fill="#132F2A"></path>
    <path d="M15.5097 26.6667L15.2966 26.8134L-0.330078 37.9868V15.3605L3.66992 18.2137L15.5097 26.6667Z" fill="#132F2A"></path>
    <path d="M38.3366 13.027L35.6699 14.9335V11.1201L38.3366 13.027Z" fill="#132F2A"></path>
    <path d="M1.00391 13.0271L3.67057 11.1202V14.9336L1.00391 13.0271Z" fill="#132F2A"></path>
    <path d="M31.6692 0H7.66924C7.31597 0.000892876 6.97728 0.141966 6.7276 0.391665C6.47793 0.641364 6.33683 0.980061 6.33594 1.3333V16.8396L19.6693 26.3596L33.0026 16.8396V1.3333C33.0017 0.98003 32.8606 0.641341 32.6109 0.391665C32.3612 0.141989 32.0225 0.000891428 31.6693 0H31.6692ZM19.6692 10.6667C21.0984 10.6667 22.419 11.4292 23.1332 12.6667C23.8478 13.9042 23.8478 15.4292 23.1332 16.6667C22.419 17.9042 21.0984 18.6667 19.6692 18.6667H17.0026C16.5261 18.6667 16.0859 18.4125 15.8478 18C15.6097 17.5875 15.6097 17.0792 15.8478 16.6667C16.0859 16.2542 16.5261 16 17.0026 16H19.6692C20.1457 16 20.5859 15.7458 20.824 15.3333C21.0621 14.9208 21.0621 14.4125 20.824 14C20.5859 13.5875 20.1457 13.3333 19.6692 13.3333C18.2401 13.3333 16.9195 12.5708 16.2052 11.3333C15.4907 10.0958 15.4907 8.57082 16.2052 7.33333C16.9195 6.09585 18.2401 5.33333 19.6692 5.33333H22.3359C22.8124 5.33333 23.2526 5.5875 23.4907 6C23.7287 6.4125 23.7287 6.92084 23.4907 7.33333C23.2526 7.74583 22.8124 8 22.3359 8H19.6692C19.1928 8 18.7526 8.25416 18.5145 8.66667C18.2764 9.07917 18.2764 9.5875 18.5145 10C18.7526 10.4125 19.1928 10.6667 19.6692 10.6667Z" fill="#132F2A"></path>
  </g>
  <defs>
    <clipPath id="clip0_168_12676">
      <rect width="40" height="40" fill="white"></rect>
    </clipPath>
  </defs>
</svg>
