<?xml version="1.0" encoding="UTF-8"?>
<svg xmlns="http://www.w3.org/2000/svg" width="40" height="40" viewBox="0 0 40 40" fill="none">
  <g clip-path="url(#clip0_265_7118)">
    <path d="M39.9999 3.95234C39.9999 1.58532 38.0808 -0.333374 35.7141 -0.333374H29.9999C29.211 -0.333374 28.5713 0.306291 28.5713 1.0952C28.5713 1.8841 29.211 2.52377 29.9999 2.52377H35.7141C36.5031 2.52377 37.1427 3.16343 37.1427 3.95234V9.66663C37.1427 10.4555 37.7824 11.0952 38.5713 11.0952C39.3602 11.0952 39.9999 10.4555 39.9999 9.66663V3.95234Z" fill="#132F2A"></path>
    <path fill-rule="evenodd" clip-rule="evenodd" d="M35.357 19.6667C35.357 28.1483 28.4814 35.0234 20.0003 35.0234C11.5192 35.0234 4.64355 28.1477 4.64355 19.6667C4.64355 11.1856 11.5192 4.30994 20.0003 4.30994C28.4814 4.30994 35.357 11.1856 35.357 19.6667ZM17.1431 15.0238C17.1431 16.2072 16.1836 17.1667 15.0003 17.1667C13.8169 17.1667 12.8574 16.2072 12.8574 15.0238C12.8574 13.8405 13.8169 12.881 15.0003 12.881C16.1836 12.881 17.1431 13.8405 17.1431 15.0238ZM27.1431 15.0238C27.1431 16.2072 26.1836 17.1667 25.0003 17.1667C23.8169 17.1667 22.8574 16.2072 22.8574 15.0238C22.8574 13.8405 23.8169 12.881 25.0003 12.881C26.1836 12.881 27.1431 13.8405 27.1431 15.0238ZM12.7578 22.1842C13.1424 21.7346 13.8191 21.6823 14.2684 22.0672C17.4131 24.7594 22.5876 24.7594 25.732 22.0672C26.1817 21.6823 26.858 21.7346 27.2426 22.1842C27.6275 22.6338 27.5752 23.3102 27.1255 23.6948C23.1784 27.0739 16.8219 27.0739 12.8749 23.6948C12.4253 23.3102 12.373 22.6339 12.7579 22.1842H12.7578Z" fill="#132F2A"></path>
    <path d="M4.28571 39.6666C1.91869 39.6666 0 37.7476 0 35.3809V29.6666C0 28.8777 0.639665 28.238 1.42857 28.238C2.21748 28.238 2.85714 28.8777 2.85714 29.6666V35.3809C2.85714 36.1698 3.49681 36.8095 4.28571 36.8095H10C10.7889 36.8095 11.4286 37.4491 11.4286 38.238C11.4286 39.0269 10.7889 39.6666 10 39.6666H4.28571Z" fill="#132F2A"></path>
    <path d="M35.7141 39.6666C38.0808 39.6666 39.9999 37.7476 39.9999 35.3809V29.6666C39.9999 28.8777 39.3602 28.238 38.5713 28.238C37.7824 28.238 37.1427 28.8777 37.1427 29.6666V35.3809C37.1427 36.1698 36.5031 36.8095 35.7141 36.8095H29.9999C29.211 36.8095 28.5713 37.4491 28.5713 38.238C28.5713 39.0269 29.211 39.6666 29.9999 39.6666H35.7141Z" fill="#132F2A"></path>
    <path d="M0 3.95234C0 1.58532 1.91869 -0.333374 4.28571 -0.333374H10C10.7889 -0.333374 11.4286 0.306291 11.4286 1.0952C11.4286 1.8841 10.7889 2.52377 10 2.52377H4.28571C3.49681 2.52377 2.85714 3.16343 2.85714 3.95234V9.66663C2.85714 10.4555 2.21748 11.0952 1.42857 11.0952C0.639665 11.0952 0 10.4555 0 9.66663V3.95234Z" fill="#132F2A"></path>
  </g>
  <defs>
    <clipPath id="clip0_265_7118">
      <rect width="40" height="40" fill="white"></rect>
    </clipPath>
  </defs>
</svg>
