<?xml version="1.0" encoding="UTF-8"?>
<svg xmlns="http://www.w3.org/2000/svg" width="40" height="40" viewBox="0 0 40 40" fill="none">
  <g clip-path="url(#clip0_567_6889)">
    <path d="M18.9753 25.4583C20.8269 25.4517 24.8753 25.4367 24.8286 22.8617C24.7836 20.2283 20.8953 20.3867 19.0003 20.465C18.7886 20.4733 18.6003 20.4817 18.4469 20.4833L18.5336 25.4617C18.6586 25.4583 18.8086 25.4583 18.9753 25.4583ZM18.7786 18.2033C20.3236 18.2017 23.6953 18.1983 23.6553 15.8567C23.6119 13.4617 20.3736 13.6033 18.7919 13.6733C18.6136 13.6817 18.4586 13.6883 18.3286 13.69L18.4069 18.205L18.7786 18.2033Z" fill="#132F2A"></path>
    <path fill-rule="evenodd" clip-rule="evenodd" d="M15.1601 39.4017C25.8768 42.0733 36.7301 35.5517 39.4018 24.8383C42.0735 14.1233 35.5501 3.27 24.8334 0.599999C14.1234 -2.07333 3.27011 4.45 0.600112 15.1667C-2.07155 25.88 4.45011 36.7333 15.1618 39.4033L15.1601 39.4017ZM22.2968 11.035C25.2201 11.2417 27.5468 12.0983 27.8518 14.7717C28.0784 16.7283 27.2784 17.92 25.9801 18.61C28.1468 19.09 29.5218 20.3483 29.3051 23.2283C29.0368 26.8033 26.3918 27.8083 22.5951 28.0917L22.6584 31.8417L20.3984 31.8833L20.3334 28.1833C19.7484 28.1933 19.1484 28.2 18.5268 28.1967L18.5934 31.9133L16.3334 31.9533L16.2668 28.1967L15.6284 28.2017C15.3051 28.2033 14.9784 28.205 14.6518 28.2117L11.7084 28.2617L12.1101 25.555C12.1101 25.555 13.7834 25.5517 13.7534 25.5267C14.3934 25.5133 14.5551 25.0517 14.5901 24.7617L14.4884 18.8333L14.6501 18.83H14.7268C14.6471 18.8209 14.5669 18.817 14.4868 18.8183L14.4134 14.585C14.3184 14.1283 14.0118 13.6017 13.0968 13.6183C13.1218 13.585 11.4534 13.6467 11.4534 13.6467L11.4101 11.2333L14.5301 11.18V11.1917C14.9984 11.1833 15.4801 11.1667 15.9684 11.1483L15.9051 7.43333L18.1651 7.395L18.2284 11.035C18.8318 11.0133 19.4384 10.99 20.0334 10.98L19.9701 7.36333L22.2318 7.32333L22.2968 11.0383V11.035Z" fill="#132F2A"></path>
  </g>
  <defs>
    <clipPath id="clip0_567_6889">
      <rect width="40" height="40" fill="white"></rect>
    </clipPath>
  </defs>
</svg>
