<?xml version="1.0" encoding="UTF-8"?>
<svg xmlns="http://www.w3.org/2000/svg" width="40" height="40" viewBox="0 0 40 40" fill="none">
  <path d="M29.2213 18.4421C23.2844 18.4421 18.4424 23.2841 18.4424 29.2211C18.4424 35.1581 23.2843 40 29.2213 40C35.1583 40 40.0003 35.1581 40.0003 29.2211C40.0003 23.2841 35.1583 18.4421 29.2213 18.4421ZM32.5055 34.1895L32.0844 34.3578C31.7475 34.5261 31.3686 34.5684 30.9897 34.5684C30.4845 34.5684 29.9371 34.4001 29.4739 34.1472C29.2633 34.0209 28.9687 33.9366 28.7162 34.0209L26.4426 34.5261C25.9795 34.6524 25.4743 34.3155 25.39 33.8523C25.2637 33.3892 25.6006 32.884 26.0638 32.7997L26.6952 32.6734C27.0321 31.9577 27.1584 31.1576 27.1164 30.3999H26.3586C25.9375 30.3999 25.5586 30.063 25.5586 29.5998C25.5586 29.1786 25.8955 28.7997 26.3586 28.7997L26.7372 28.8C26.7372 28.8 26.7372 28.758 26.6952 28.758C26.2741 27.8737 26.1058 27.158 26.1058 26.6528C26.1058 24.8843 27.4952 23.5369 29.3057 23.5369C31.0741 23.5369 32.5056 24.9684 32.5056 26.7368C32.5056 27.242 32.1267 27.6212 31.6213 27.6212C31.1161 27.6212 30.7369 27.2423 30.7369 26.7368C30.7369 25.9791 30.1054 25.3474 29.3474 25.3474C28.5474 25.3474 27.958 25.9368 27.958 26.6949C27.958 26.8212 28 27.2 28.3791 28.0843C28.5054 28.3369 28.5897 28.5895 28.674 28.8844H31.0318C31.453 28.8844 31.8319 29.2213 31.8319 29.6845C31.8319 30.1057 31.495 30.4846 31.0318 30.4846H28.9686C29.0106 31.116 28.9686 31.7478 28.8003 32.3792C29.3898 32.3372 29.9792 32.4635 30.4844 32.8004C30.7792 32.9687 31.1158 33.011 31.4107 32.8847L31.8319 32.7164C32.295 32.5058 32.8002 32.7164 33.0108 33.1796C33.1794 33.4739 32.9688 33.9794 32.5056 34.1897L32.5055 34.1895Z" fill="#132F2A"></path>
  <path d="M10.7789 0C4.84203 0 0 4.84195 0 10.7789C0 16.7159 4.84195 21.5579 10.7789 21.5579C16.7159 21.5579 21.5579 16.7159 21.5579 10.7789C21.5579 4.84195 16.7579 0 10.7789 0ZM11.6633 15.5368V16.6315C11.6633 17.1367 11.2844 17.5159 10.7789 17.5159C10.2738 17.5159 9.89489 17.0947 9.89489 16.6315V15.5368C8.80023 15.4525 7.83165 14.7791 7.45278 13.7684C7.28449 13.3052 7.49478 12.8001 7.95795 12.6315C8.42113 12.4632 8.9263 12.6735 9.09487 13.1367C9.26317 13.5156 9.64233 13.8104 10.1055 13.8104H11.4949C12.0844 13.8104 12.5476 13.3473 12.5476 12.7578C12.5476 12.1683 12.0844 11.7052 11.4949 11.7052H10.1055C8.54765 11.7052 7.28442 10.4419 7.28442 8.88411C7.28442 7.41028 8.46337 6.18938 9.89487 6.10509V5.01043C9.89487 4.50526 10.2738 4.12607 10.7792 4.12607C11.2844 4.12607 11.6636 4.50495 11.6636 5.01043V6.10509C12.7583 6.18938 13.7268 6.86283 14.1057 7.87351C14.274 8.33668 14.0637 8.84186 13.6005 9.01043C13.1374 9.17872 12.6322 8.96843 12.4636 8.50526C12.2953 8.12638 11.9161 7.8315 11.453 7.8315H10.0635C9.47407 7.8315 9.0109 8.29468 9.0109 8.88413C9.0109 9.47359 9.47407 9.93677 10.0635 9.93677H11.453C13.0108 9.93677 14.2741 11.2 14.2741 12.7578C14.3158 14.2317 13.1368 15.4526 11.6633 15.5368Z" fill="#132F2A"></path>
  <path d="M23.4522 3.74728H33.768V9.38931H31.5785C31.1996 9.38931 30.9047 9.59989 30.6941 9.89448C30.5258 10.1894 30.5258 10.6102 30.6941 10.9051L33.8941 16.1262C34.0623 16.4211 34.3992 16.5894 34.7361 16.5894C35.073 16.5894 35.4098 16.4211 35.5781 16.1262L38.778 10.9051C38.9463 10.6102 38.9886 10.2313 38.778 9.89448C38.6097 9.5996 38.2729 9.38931 37.8937 9.38931H35.7041L35.7047 2.73668C35.7047 2.18922 35.2415 1.72607 34.6941 1.72607L23.452 1.72637C22.9045 1.72637 22.4414 2.18954 22.4414 2.73697C22.4414 3.28414 22.9046 3.74735 23.452 3.74735L23.4522 3.74728Z" fill="#132F2A"></path>
  <path d="M16.5471 36.2526H6.18918V30.6526H8.37873C8.75761 30.6526 9.05248 30.442 9.26309 30.1475C9.43138 29.8526 9.43138 29.4317 9.26309 29.1369L6.06316 23.9157C5.68428 23.3263 4.71564 23.3263 4.3791 23.9157L1.17865 29.1369C1.01036 29.4317 0.968066 29.8106 1.17865 30.1475C1.34695 30.4423 1.68383 30.6526 2.06301 30.6526H4.25256L4.25227 37.2633C4.25227 37.8108 4.71544 38.2739 5.26287 38.2739H16.5892C17.1366 38.2739 17.5998 37.8107 17.5998 37.2633C17.5995 36.7158 17.0943 36.2527 16.5469 36.2527L16.5471 36.2526Z" fill="#132F2A"></path>
</svg>
