<?xml version="1.0" encoding="UTF-8"?>
<svg xmlns="http://www.w3.org/2000/svg" width="40" height="40" viewBox="0 0 40 40" fill="none">
  <path d="M20 0C8.97222 0 0 8.97222 0 20C0 31.0278 8.97222 40 20 40C31.0278 40 40 31.0278 40 20C40 8.97222 31.0278 0 20 0ZM33.9722 30.7738C33.7354 26.1784 30.1518 22.469 25.6071 22.0548H14.3921C9.84683 22.4702 6.26429 26.1793 6.02778 30.7738C3.72587 27.7929 2.35246 24.0579 2.35246 20C2.35246 10.2532 10.2533 2.35238 20.0001 2.35238C29.7469 2.35238 37.6477 10.2529 37.6477 20C37.6477 24.0579 36.2746 27.7929 33.973 30.7738H33.9722Z" fill="#132F2A"></path>
  <path d="M27.9603 11.9921C27.9603 16.3993 24.3873 19.9722 19.9802 19.9722C15.573 19.9722 12 16.3992 12 11.9921C12 7.58452 15.573 4.0119 19.9802 4.0119C24.3873 4.0119 27.9603 7.58492 27.9603 11.9921Z" fill="#132F2A"></path>
</svg>
