<?xml version="1.0" encoding="UTF-8"?>
<svg xmlns="http://www.w3.org/2000/svg" width="40" height="40" viewBox="0 0 40 40" fill="none">
  <path d="M25.1349 14.8749V14.7094L25.5904 7.83558V7.75268C25.6733 7.17298 26.1288 6.75881 26.7085 6.75881C27.2882 6.75881 27.785 7.21432 27.8265 7.79402L28.2407 14.0466C28.2407 14.2121 28.3236 14.4192 28.4478 14.5434L31.2222 17.8561L31.2635 17.8974C31.5948 18.3529 31.5535 18.974 31.1806 19.3881C30.7664 19.8023 30.1041 19.8436 29.6486 19.4294L25.7978 16.1996C25.7149 16.1583 25.6736 16.0754 25.5907 16.0341C25.3004 15.7447 25.1349 15.3304 25.1349 14.8749ZM26.8324 1.50007C21.0766 1.50007 16.1491 5.22666 14.3685 10.4028C15.5279 10.527 16.646 10.7754 17.7225 11.148C19.1303 7.50404 22.6914 4.89547 26.8323 4.89547C32.2154 4.89547 36.6046 9.28467 36.6046 14.6678C36.6046 19.5538 33.0022 23.5706 28.3644 24.3159C28.4473 24.9369 28.4886 25.5995 28.4886 26.2621C28.4886 26.7589 28.4473 27.256 28.4057 27.7528C34.9069 26.966 40 21.4173 40 14.7092C40.0003 7.42123 34.0789 1.50007 26.8324 1.50007ZM25.052 26.2208C25.052 33.1359 19.4617 38.7675 12.5467 38.7675C5.63166 38.7675 0 33.1359 0 26.2208C0 19.3056 5.63152 13.7155 12.5467 13.7155C19.4619 13.7155 25.052 19.347 25.052 26.2208ZM14.907 25.4753C14.2444 25.1027 13.4991 24.8127 12.7952 24.523C12.381 24.3575 12.0084 24.1504 11.6358 23.8604C10.9732 23.322 11.0974 22.4109 11.8842 22.08C12.0913 21.9971 12.3397 21.9558 12.5881 21.9558H12.9194C13.7475 21.9558 14.493 22.1213 15.2382 22.4942C15.4037 22.577 15.4866 22.6184 15.6108 22.6184C15.7763 22.6184 15.8592 22.4942 15.9421 22.2042C16.1076 21.7486 16.2321 21.2932 16.3563 20.7963C16.4392 20.465 16.3563 20.258 16.025 20.1338C15.4866 19.8853 14.9484 19.7196 14.3688 19.6369C13.6236 19.5127 13.6236 19.5127 13.6236 18.7672C13.6236 17.732 13.6236 17.6907 12.6713 17.6907H12.5471H12.2571H12.0916C11.5948 17.6907 11.5119 17.7736 11.4706 18.3117V18.9743C11.4706 19.6369 11.4706 19.6369 10.808 19.8853C9.23439 20.465 8.28208 21.5002 8.19919 23.198C8.11629 24.6887 8.90309 25.7239 10.1454 26.4691C10.8903 26.9246 11.7184 27.173 12.5465 27.5456C12.8778 27.6698 13.1675 27.8356 13.4163 28.0424C14.2031 28.6634 14.0373 29.7403 13.1263 30.1542C12.7536 30.3197 12.3811 30.4026 12.0082 30.4026C11.884 30.4026 11.7182 30.4026 11.594 30.3613C10.7659 30.2784 9.97904 30.03 9.23354 29.6574C9.06803 29.5745 8.94354 29.5332 8.86093 29.5332C8.69543 29.5332 8.61253 29.6574 8.52963 29.9474C8.40543 30.3616 8.28123 30.7755 8.15702 31.1897C7.99152 31.7281 8.07413 31.8936 8.57123 32.142C9.23382 32.4733 9.97903 32.6388 10.683 32.763C11.2627 32.8459 11.2627 32.8872 11.2627 33.4669V34.295C11.2627 34.6263 11.4282 34.8334 11.7595 34.8334H12.2979H12.9189C13.2502 34.8334 13.4157 34.6679 13.4157 34.3366V33.2185C13.4157 32.8459 13.5812 32.6388 13.9125 32.5559C14.7406 32.3488 15.4445 31.8933 15.9829 31.2307C17.6397 29.3264 17.06 26.635 14.907 25.4753Z" fill="#132F2A"></path>
  <path d="M25.1335 14.8749V14.7093L25.589 7.83551V7.75261C25.6719 7.17291 26.1274 6.75874 26.7071 6.75874C27.2868 6.75874 27.7837 7.21424 27.8252 7.79394L28.2394 14.0465C28.2394 14.212 28.3223 14.4191 28.4465 14.5433L31.2209 17.856L31.2622 17.8974C31.5935 18.3529 31.5522 18.9739 31.1793 19.388C30.7651 19.8022 30.1028 19.8436 29.6473 19.4294L25.7965 16.1995C25.7136 16.1582 25.6722 16.0753 25.5893 16.034C25.2991 15.7446 25.1335 15.3304 25.1335 14.8749ZM26.8311 1.5C21.0753 1.5 16.1477 5.22659 14.3672 10.4028C15.5266 10.527 16.6447 10.7754 17.7212 11.148C19.129 7.50397 22.6901 4.8954 26.831 4.8954C32.2141 4.8954 36.6033 9.28459 36.6033 14.6677C36.6033 19.5538 33.0009 23.5705 28.3631 24.3158C28.446 24.9368 28.4873 25.5994 28.4873 26.262C28.4873 26.7588 28.446 27.2559 28.4044 27.7527C34.9056 26.9659 39.9987 21.4173 39.9987 14.7091C39.999 7.42115 34.0776 1.5 26.8311 1.5Z" fill="#132F2A"></path>
</svg>
