<?xml version="1.0" encoding="UTF-8"?>
<svg xmlns="http://www.w3.org/2000/svg" width="154" height="56" viewBox="0 0 154 56" fill="none">
  <g clip-path="url(#clip0_425_1478)">
    <rect x="40" y="10" width="2" height="46" fill="#132F2A"></rect>
    <rect x="24" y="19" width="2" height="37" fill="#132F2A"></rect>
    <rect x="36" y="19" width="2" height="37" fill="#132F2A"></rect>
    <rect x="20" y="19" width="2" height="37" fill="#132F2A"></rect>
    <rect x="32" y="19" width="2" height="37" fill="#132F2A"></rect>
    <rect x="16" y="19" width="2" height="37" fill="#132F2A"></rect>
    <rect x="8" y="19" width="2" height="37" fill="#132F2A"></rect>
    <rect x="28" y="19" width="2" height="37" fill="#132F2A"></rect>
    <rect x="12" y="19" width="2" height="37" fill="#132F2A"></rect>
    <rect x="4" y="19" width="2" height="37" fill="#132F2A"></rect>
    <rect y="19" width="2" height="37" fill="#132F2A"></rect>
    <path d="M0 0H42C42 0 42.641 10.3542 41.5 16.5C39.4566 27.5061 35.9242 33.7197 27.3246 41C18.6831 48.3156 0 51 0 51V0Z" fill="#132F2A"></path>
    <path d="M62.608 28.92V33H50.464V15.96H62.392V20.04H55.144V22.44H61.336V26.232H55.144V28.92H62.608ZM77.1683 33H72.6083V25.896C72.6083 25.272 72.4643 24.824 72.1763 24.552C71.9043 24.264 71.5843 24.12 71.2163 24.12C70.9603 24.12 70.6883 24.2 70.4003 24.36C70.1123 24.504 69.8483 24.712 69.6083 24.984C69.3683 25.256 69.1763 25.568 69.0323 25.92V33H64.4723V20.376H68.5763V22.248C68.8803 21.784 69.2643 21.4 69.7283 21.096C70.1923 20.776 70.7283 20.536 71.3363 20.376C71.9443 20.216 72.6083 20.136 73.3283 20.136C74.1923 20.136 74.8803 20.288 75.3923 20.592C75.9043 20.896 76.2883 21.288 76.5443 21.768C76.8003 22.248 76.9683 22.752 77.0483 23.28C77.1283 23.792 77.1683 24.264 77.1683 24.696V33ZM88.2346 32.304C87.8186 32.48 87.3706 32.648 86.8906 32.808C86.4266 32.952 85.9466 33.064 85.4506 33.144C84.9706 33.224 84.4986 33.264 84.0346 33.264C83.3466 33.264 82.7146 33.152 82.1386 32.928C81.5626 32.688 81.0986 32.304 80.7466 31.776C80.4106 31.232 80.2426 30.504 80.2426 29.592V23.808H78.6826V20.376H80.2426V16.416H84.8026V20.376H87.2746V23.808H84.8026V27.984C84.8026 28.4 84.8906 28.696 85.0666 28.872C85.2426 29.032 85.4826 29.112 85.7866 29.112C86.0106 29.112 86.2666 29.072 86.5546 28.992C86.8426 28.912 87.1306 28.816 87.4186 28.704L88.2346 32.304ZM98.095 24.264C97.215 24.264 96.415 24.36 95.695 24.552C94.975 24.744 94.439 25.064 94.087 25.512V33H89.527V20.376H93.703V22.776C94.151 21.928 94.711 21.28 95.383 20.832C96.055 20.368 96.767 20.136 97.519 20.136C97.695 20.136 97.815 20.136 97.879 20.136C97.959 20.136 98.031 20.144 98.095 20.16V24.264ZM105.727 33.24C104.623 33.24 103.639 33.072 102.775 32.736C101.911 32.384 101.183 31.912 100.591 31.32C100.015 30.728 99.5754 30.048 99.2714 29.28C98.9674 28.512 98.8154 27.704 98.8154 26.856C98.8154 25.64 99.0794 24.528 99.6074 23.52C100.135 22.496 100.911 21.68 101.935 21.072C102.959 20.448 104.223 20.136 105.727 20.136C107.231 20.136 108.495 20.44 109.519 21.048C110.543 21.656 111.319 22.456 111.847 23.448C112.375 24.44 112.639 25.52 112.639 26.688C112.639 26.928 112.623 27.176 112.591 27.432C112.575 27.672 112.551 27.888 112.519 28.08H103.663C103.695 28.528 103.815 28.896 104.023 29.184C104.247 29.456 104.519 29.656 104.839 29.784C105.175 29.912 105.519 29.976 105.871 29.976C106.367 29.976 106.831 29.864 107.263 29.64C107.711 29.416 108.007 29.104 108.151 28.704L112.015 29.808C111.679 30.48 111.207 31.072 110.599 31.584C110.007 32.096 109.303 32.504 108.487 32.808C107.671 33.096 106.751 33.24 105.727 33.24ZM103.567 25.344H107.743C107.695 24.928 107.575 24.576 107.383 24.288C107.207 24 106.967 23.776 106.663 23.616C106.375 23.456 106.039 23.376 105.655 23.376C105.271 23.376 104.927 23.456 104.623 23.616C104.335 23.776 104.095 24 103.903 24.288C103.727 24.576 103.615 24.928 103.567 25.344ZM134.335 28.632C134.335 29.656 134.055 30.488 133.495 31.128C132.951 31.768 132.215 32.24 131.287 32.544C130.359 32.848 129.335 33 128.215 33H119.839V15.96H129.727C130.527 15.96 131.215 16.176 131.791 16.608C132.383 17.024 132.831 17.568 133.135 18.24C133.455 18.912 133.615 19.608 133.615 20.328C133.615 21.112 133.407 21.872 132.991 22.608C132.591 23.344 131.983 23.896 131.167 24.264C132.143 24.552 132.911 25.056 133.471 25.776C134.047 26.496 134.335 27.448 134.335 28.632ZM129.583 27.672C129.583 27.384 129.527 27.136 129.415 26.928C129.319 26.704 129.183 26.528 129.007 26.4C128.831 26.272 128.623 26.208 128.383 26.208H124.519V29.064H128.215C128.471 29.064 128.703 29.008 128.911 28.896C129.119 28.784 129.279 28.624 129.391 28.416C129.519 28.208 129.583 27.96 129.583 27.672ZM124.519 19.944V22.56H127.711C127.919 22.56 128.119 22.528 128.311 22.464C128.503 22.384 128.663 22.248 128.791 22.056C128.919 21.864 128.983 21.592 128.983 21.24C128.983 20.92 128.927 20.672 128.815 20.496C128.719 20.304 128.583 20.168 128.407 20.088C128.247 19.992 128.063 19.944 127.855 19.944H124.519ZM136.097 33V20.376H140.657V33H136.097ZM136.097 19.32V15.48H140.657V19.32H136.097ZM142.341 30.312L148.101 23.496H142.701V20.376H152.853V23.064L147.117 29.88H153.069V33H142.341V30.312Z" fill="#132F2A"></path>
    <path d="M17.1605 31.3707C15.1065 31.3707 13.3338 30.9659 11.8423 30.1562C10.3594 29.3381 9.21733 28.1747 8.41619 26.6662C7.62358 25.1491 7.22727 23.3466 7.22727 21.2585C7.22727 19.2301 7.62784 17.4574 8.42898 15.9403C9.23011 14.4148 10.3594 13.2301 11.8168 12.3864C13.2741 11.5341 14.9915 11.108 16.9688 11.108C18.3665 11.108 19.6449 11.3253 20.804 11.7599C21.9631 12.1946 22.9645 12.8381 23.8082 13.6903C24.652 14.5426 25.3082 15.5952 25.777 16.848C26.2457 18.0923 26.4801 19.5199 26.4801 21.1307V22.6903H9.41335V19.0597H20.6634C20.6548 18.3949 20.4972 17.8026 20.1903 17.2827C19.8835 16.7628 19.4616 16.358 18.9247 16.0682C18.3963 15.7699 17.7869 15.6207 17.0966 15.6207C16.3977 15.6207 15.7713 15.7784 15.2173 16.0938C14.6634 16.4006 14.2244 16.8224 13.9006 17.3594C13.5767 17.8878 13.4063 18.4886 13.3892 19.1619V22.8565C13.3892 23.6577 13.5469 24.3608 13.8622 24.9659C14.1776 25.5625 14.625 26.027 15.2045 26.3594C15.7841 26.6918 16.4744 26.858 17.2756 26.858C17.8295 26.858 18.3324 26.7812 18.7841 26.6278C19.2358 26.4744 19.6236 26.2486 19.9474 25.9503C20.2713 25.652 20.5142 25.2855 20.6761 24.8509L26.4162 25.017C26.1776 26.304 25.6534 27.4247 24.8438 28.3793C24.0426 29.3253 22.9901 30.0625 21.6861 30.5909C20.3821 31.1108 18.8736 31.3707 17.1605 31.3707Z" fill="#F9FFFD"></path>
  </g>
  <defs>
    <clipPath id="clip0_425_1478">
      <rect width="154" height="56" fill="white"></rect>
    </clipPath>
  </defs>
</svg>
