<?xml version="1.0" encoding="UTF-8"?>
<svg xmlns="http://www.w3.org/2000/svg" width="7" height="12" viewBox="0 0 7 12" fill="none">
  <path d="M0.141704 0.832927L5.17903 6.00053L0.141704 11.1681C0.0515216 11.2605 0.00103387 11.3844 0.00103386 11.5135C0.00103386 11.6425 0.0515216 11.7665 0.141704 11.8588C0.185506 11.9035 0.237787 11.939 0.295487 11.9633C0.353187 11.9875 0.415145 12 0.477732 12C0.540319 12 0.602277 11.9875 0.659977 11.9633C0.717677 11.939 0.769959 11.9035 0.81376 11.8588L6.17367 6.36137C6.26778 6.26483 6.32044 6.13535 6.32044 6.00053C6.32044 5.86571 6.26778 5.73623 6.17367 5.63969L0.814795 0.142259C0.77096 0.0972377 0.71855 0.0614544 0.660659 0.0370211C0.602768 0.0125878 0.540568 3.80739e-07 0.477732 3.7999e-07C0.414896 3.79241e-07 0.352696 0.0125878 0.294805 0.0370211C0.236914 0.0614544 0.184504 0.0972377 0.14067 0.142259C0.0504874 0.234587 1.38823e-07 0.35853 1.37284e-07 0.487593C1.35745e-07 0.616656 0.0504874 0.740599 0.14067 0.832927L0.141704 0.832927Z" fill="white"></path>
</svg>
