<?xml version="1.0" encoding="UTF-8"?>
<svg xmlns="http://www.w3.org/2000/svg" width="24" height="24" viewBox="0 0 24 24" fill="none">
  <g clip-path="url(#clip0_1329_1685)">
    <path d="M21.6828 23.6245L14.0464 15.9772C13.3646 16.5235 12.5805 16.9559 11.6942 17.2745C10.8078 17.5932 9.86461 17.7525 8.86461 17.7525C6.38734 17.7525 4.29098 16.8935 2.57552 15.1756C0.859158 13.4568 0.000976562 11.357 0.000976562 8.87624C0.000976562 6.39545 0.859158 4.29565 2.57552 2.57684C4.29098 0.858947 6.38734 0 8.86461 0C11.3419 0 13.4387 0.858947 15.1551 2.57684C16.8705 4.29565 17.7282 6.39545 17.7282 8.87624C17.7282 9.87767 17.5692 10.8222 17.251 11.7098C16.9328 12.5974 16.501 13.3826 15.9555 14.0654L23.626 21.7468C23.876 21.9972 24.001 22.3044 24.001 22.6686C24.001 23.0327 23.8646 23.3513 23.5919 23.6245C23.3419 23.8748 23.0237 24 22.6373 24C22.251 24 21.9328 23.8748 21.6828 23.6245ZM8.86461 15.0213C10.5692 15.0213 12.0182 14.4241 13.2119 13.2297C14.4046 12.0344 15.001 10.5832 15.001 8.87624C15.001 7.16927 14.4046 5.71812 13.2119 4.52279C12.0182 3.32836 10.5692 2.73115 8.86461 2.73115C7.16007 2.73115 5.71098 3.32836 4.51734 4.52279C3.32461 5.71812 2.72825 7.16927 2.72825 8.87624C2.72825 10.5832 3.32461 12.0344 4.51734 13.2297C5.71098 14.4241 7.16007 15.0213 8.86461 15.0213Z" fill="#132F2A"></path>
  </g>
  <defs>
    <clipPath id="clip0_1329_1685">
      <rect width="24" height="24" fill="white" transform="translate(0.000976562)"></rect>
    </clipPath>
  </defs>
</svg>
