<?xml version="1.0" encoding="UTF-8"?>
<svg xmlns="http://www.w3.org/2000/svg" width="40" height="40" viewBox="0 0 40 40" fill="none">
  <g clip-path="url(#clip0_168_10305)">
    <path d="M16.5969 9.22197C16.9185 7.1936 17.7222 5.24494 19.0451 3.53394C10.2606 3.84586 3.17296 10.9341 2.86914 19.7179C4.57023 18.3908 6.53281 17.5828 8.55718 17.2618C9.61304 13.3579 12.685 10.2856 16.5971 9.2219L16.5969 9.22197Z" fill="#132F2A"></path>
    <path d="M22.7099 31.4146C22.3909 33.4504 21.5712 35.4087 20.2617 37.1027C29.0462 36.7908 36.1339 29.7025 36.4377 20.9187C34.7366 22.2458 32.774 23.0538 30.7497 23.3748C29.6858 27.2869 26.6135 30.3589 22.7098 31.4147L22.7099 31.4146Z" fill="#132F2A"></path>
    <path d="M10.4538 18.7184C4.47828 18.7184 -0.34668 23.5706 -0.34668 29.5181C-0.34668 35.4703 4.50152 40.3179 10.4531 40.3179C16.4047 40.3179 21.2529 35.4891 21.2529 29.5181C21.2531 23.5663 16.4049 18.7184 10.4531 18.7184H10.4538ZM13.7598 26.3481L11.59 29.8871H12.8556C13.1388 29.8871 13.3337 30.1082 13.3337 30.378C13.3337 30.6547 13.1325 30.8559 12.8556 30.8559H11.0344V32.0313H12.8556C13.1399 32.0313 13.3337 32.2536 13.3337 32.5223C13.3337 32.8029 13.1282 33.0004 12.8556 33.0004H11.0344V34.0981C11.0344 34.4387 10.7532 34.6792 10.4533 34.6792C10.1522 34.6792 9.8721 34.4379 9.8721 34.0981V33.0004H8.05006C7.77827 33.0004 7.57278 32.8043 7.57278 32.5223C7.57278 32.2499 7.76831 32.0313 8.05006 32.0313H9.8721V30.8559H8.05006C7.77912 30.8559 7.57278 30.6618 7.57278 30.378C7.57278 30.1037 7.7703 29.8871 8.05006 29.8871H9.31656L7.14619 26.3481C6.97372 26.0666 7.0295 25.7536 7.2236 25.5725C7.48145 25.3332 7.95473 25.3053 8.21797 25.7663L10.4533 29.6805L12.6877 25.7663C12.9518 25.3041 13.4265 25.3352 13.6823 25.5725C13.8759 25.753 13.9345 26.0629 13.7597 26.3481H13.7598Z" fill="#132F2A"></path>
    <path d="M29.2148 11.6671V14.4706C30.4634 14.3847 31.0884 13.8895 31.0884 12.985C31.0884 12.1733 30.0496 11.8876 29.2148 11.667V11.6671Z" fill="#132F2A"></path>
    <path d="M28.8535 0.317871C22.8543 0.317871 18.0537 5.19223 18.0537 11.1176C18.0537 17.0698 22.9019 21.9174 28.8535 21.9174C34.8375 21.9174 39.6532 17.0573 39.6532 11.1176C39.6535 5.16578 34.8053 0.317871 28.8535 0.317871ZM29.2149 15.5817V16.5894C29.2149 16.7684 29.0831 16.8735 28.9172 16.8735C28.7448 16.8735 28.6329 16.7616 28.6329 16.5894V15.5817C27.6422 15.5384 26.7213 15.3318 25.868 14.9612C25.4881 14.803 25.3913 14.3599 25.6548 14.0826C25.8205 13.9099 26.0775 13.89 26.2821 13.979C26.9797 14.2892 27.7635 14.4572 28.633 14.4831V11.5244C27.0554 11.1148 25.5971 10.6136 25.5971 8.95328C25.5971 7.61567 26.5952 6.42597 28.633 6.31756V5.31008C28.633 5.14501 28.7383 5.01267 28.9173 5.01267C29.0875 5.01267 29.215 5.13448 29.215 5.31008V6.30503C30.0415 6.33093 30.8079 6.47294 31.5143 6.73108C31.9429 6.88448 31.9603 7.36005 31.7337 7.61616C31.6071 7.76074 31.4056 7.82705 31.1526 7.72602C30.5236 7.50232 29.8775 7.38591 29.215 7.37709V10.4522C30.8759 10.8396 32.2508 11.3328 32.2508 13.062C32.2508 14.6268 30.821 15.4902 29.215 15.5816L29.2149 15.5817Z" fill="#132F2A"></path>
    <path d="M26.7598 8.86349C26.7598 9.78872 27.7314 10.0819 28.6333 10.3104V7.4032C27.699 7.48943 26.7598 7.9189 26.7598 8.86349Z" fill="#132F2A"></path>
  </g>
  <defs>
    <clipPath id="clip0_168_10305">
      <rect width="40" height="40" fill="white"></rect>
    </clipPath>
  </defs>
</svg>
