<?xml version="1.0" encoding="UTF-8"?>
<svg xmlns="http://www.w3.org/2000/svg" width="40" height="40" viewBox="0 0 40 40" fill="none">
  <g clip-path="url(#clip0_168_10323)">
    <path d="M11.9952 0C12.9157 0 13.6621 0.746069 13.6621 1.66657V31.6665C13.6621 32.587 12.9157 33.3333 11.9952 33.3333H5.32867C4.40818 33.3333 3.66211 32.587 3.66211 31.6665V1.66657C3.66211 0.746069 4.40818 0 5.32867 0L11.9952 0Z" fill="#132F2A"></path>
    <path d="M23.6615 8.3335C24.582 8.3335 25.3281 9.07956 25.3281 10.0001V31.6664C25.3281 32.5869 24.582 33.3333 23.6615 33.3333H16.9947C16.0742 33.3333 15.3281 32.5869 15.3281 31.6664V10.0001C15.3281 9.07956 16.0742 8.3335 16.9947 8.3335H23.6615Z" fill="#132F2A"></path>
    <path d="M35.3285 18.3335C36.249 18.3335 36.9951 19.0796 36.9951 20.0001V31.6664C36.9951 32.5869 36.249 33.3333 35.3285 33.3333H28.662C27.7415 33.3333 26.9951 32.5869 26.9951 31.6664V20.0001C26.9951 19.0796 27.7415 18.3335 28.662 18.3335H35.3285Z" fill="#132F2A"></path>
    <path d="M40.3283 38.3335C40.3283 37.413 39.5822 36.6666 38.6617 36.6666H1.99469C1.07419 36.6666 0.328125 37.413 0.328125 38.3335C0.328125 39.254 1.07419 40 1.99469 40H38.6617C39.5822 40 40.3283 39.254 40.3283 38.3335Z" fill="#132F2A"></path>
  </g>
  <defs>
    <clipPath id="clip0_168_10323">
      <rect width="40" height="40" fill="white"></rect>
    </clipPath>
  </defs>
</svg>
