<?xml version="1.0" encoding="UTF-8"?>
<svg xmlns="http://www.w3.org/2000/svg" width="40" height="40" viewBox="0 0 40 40" fill="none">
  <g clip-path="url(#clip0_204_6639)">
    <path d="M20 0C8.955 0 0 8.955 0 20C0 31.045 8.955 40 20 40C31.045 40 40 31.045 40 20C40 8.95429 31.045 0 20 0ZM32.0079 21.9529H20.0114C18.933 21.9529 18.0583 21.0781 18.0583 20V5.755C18.0583 4.67686 18.933 3.80214 20.0114 3.80214C21.0899 3.80214 21.9646 4.67686 21.9646 5.755V18.0471L32.0074 18.0469C33.0861 18.0469 33.9606 18.9213 33.9606 20C33.9603 21.0781 33.0861 21.9529 32.0074 21.9529L32.0079 21.9529Z" fill="#132F2A"></path>
  </g>
  <defs>
    <clipPath id="clip0_204_6639">
      <rect width="40" height="40" fill="white"></rect>
    </clipPath>
  </defs>
</svg>
