<?xml version="1.0" encoding="UTF-8"?>
<svg xmlns="http://www.w3.org/2000/svg" width="40" height="40" viewBox="0 0 40 40" fill="none">
  <g clip-path="url(#clip0_375_6762)">
    <path d="M38.5353 18.0046V16.0388H1.125V18.0046C1.125 18.3788 1.42946 18.683 1.8034 18.683H37.8499C38.2302 18.6894 38.5347 18.3849 38.5347 18.0046H38.5353Z" fill="#132F2A"></path>
    <path d="M37.5905 19.9513H30.001V20.2937C30.001 20.9721 30.5527 21.5238 31.2311 21.5238H36.3606C37.039 21.5238 37.5907 20.9721 37.5907 20.2937L37.5905 19.9513Z" fill="#132F2A"></path>
    <path d="M30.0002 35.714V36.05H37.5897V35.714C37.5897 35.0356 37.038 34.4839 36.3596 34.4839H31.2301C30.5517 34.4839 30 35.0356 30 35.714H30.0002Z" fill="#132F2A"></path>
    <path d="M31.3066 22.7917H36.284V33.2158H31.3066V22.7917Z" fill="#132F2A"></path>
    <path d="M23.7936 19.9513H16.2041V20.2937C16.2041 20.9721 16.7558 21.5238 17.4342 21.5238H22.5637C23.2421 21.5238 23.7938 20.9721 23.7938 20.2937L23.7936 19.9513Z" fill="#132F2A"></path>
    <path d="M16.2034 35.714V36.05H23.7929V35.714C23.7929 35.0356 23.2412 34.4839 22.5627 34.4839H17.4332C16.7546 34.4839 16.2031 35.0356 16.2031 35.714H16.2034Z" fill="#132F2A"></path>
    <path d="M17.5088 22.7917H22.4861V33.2158H17.5088V22.7917Z" fill="#132F2A"></path>
    <path d="M9.42523 19.9513H1.83496V20.2937C1.83496 20.9721 2.38667 21.5238 3.06508 21.5238H8.19458C8.87941 21.5238 9.4247 20.9721 9.4247 20.2937L9.42523 19.9513Z" fill="#132F2A"></path>
    <path d="M1.83519 35.714V36.05H9.4247V35.714C9.4247 35.0356 8.87941 34.4839 8.19458 34.4839H3.06508C2.38668 34.4839 1.83496 35.0356 1.83496 35.714H1.83519Z" fill="#132F2A"></path>
    <path d="M3.14746 22.7917H8.11846V33.2158H3.14746V22.7917Z" fill="#132F2A"></path>
    <path d="M39.0231 37.3243H0.40216C0.0787236 37.3243 -0.1875 37.5906 -0.1875 37.914V39.4103C-0.1875 39.7337 0.0787236 40 0.40216 40H39.0231C39.3465 40 39.6127 39.7337 39.6127 39.4103V37.914C39.6127 37.5909 39.3465 37.3243 39.0231 37.3243Z" fill="#132F2A"></path>
    <path d="M39.4411 9.21641L20.4509 0.104651C20.1657 -0.0348837 19.8294 -0.0348837 19.5442 0.104651L0.547258 9.21641C0.185875 9.38747 -0.0488281 9.75527 -0.0488281 10.1611V13.7183C-0.0488281 14.2954 0.420271 14.7645 0.997383 14.7645H38.9846C39.5617 14.7645 40.0308 14.2954 40.0308 13.7183V10.1611C40.0372 9.75559 39.8089 9.38776 39.4411 9.21641H39.4411ZM20.001 12.482C17.4711 12.482 15.423 10.434 15.423 7.90393C15.423 5.3739 17.471 3.32586 20.001 3.32586C22.5311 3.32586 24.5791 5.3739 24.5791 7.90393C24.5788 10.4275 22.5308 12.482 20.001 12.482Z" fill="#132F2A"></path>
    <path d="M19.995 6.41388C20.2677 6.41388 20.4895 6.63573 20.4895 6.90838C20.4895 7.25721 20.7747 7.54241 21.1236 7.54241C21.4724 7.54241 21.7576 7.25721 21.7576 6.90838C21.7576 6.16019 21.2885 5.52618 20.6291 5.27248V5.11426C20.6291 4.76542 20.3439 4.48022 19.995 4.48022C19.6462 4.48022 19.361 4.76542 19.361 5.11426V5.26635C18.7016 5.52002 18.2324 6.15406 18.2324 6.90225C18.2324 7.87224 19.0249 8.66482 19.995 8.66482C20.2676 8.66482 20.4895 8.88667 20.4895 9.15932C20.4895 9.43196 20.2676 9.65382 19.995 9.65382C19.7223 9.65382 19.5005 9.43196 19.5005 9.15932C19.5005 8.81048 19.2153 8.52528 18.8665 8.52528C18.5176 8.52528 18.2324 8.81048 18.2324 9.15932C18.2324 9.90751 18.7015 10.5415 19.361 10.7952V10.9473C19.361 11.2961 19.6462 11.5813 19.995 11.5813C20.3439 11.5813 20.6291 11.2961 20.6291 10.9473V10.7952C21.2885 10.5415 21.7576 9.90751 21.7576 9.15932C21.7576 8.18933 20.9651 7.39675 19.995 7.39675C19.7224 7.39675 19.5006 7.17489 19.5006 6.90225C19.5067 6.62961 19.7224 6.41388 19.995 6.41388Z" fill="#132F2A"></path>
  </g>
  <defs>
    <clipPath id="clip0_375_6762">
      <rect width="40" height="40" fill="white"></rect>
    </clipPath>
  </defs>
</svg>
