<?xml version="1.0" encoding="UTF-8"?>
<svg xmlns="http://www.w3.org/2000/svg" width="40" height="40" viewBox="0 0 40 40" fill="none">
  <g clip-path="url(#clip0_241_8356)">
    <path d="M29.8407 32.5161C29.1179 34.5788 28.2082 36.3852 27.1646 37.8689C26.9835 38.1262 27.2367 38.4737 27.5285 38.3558C30.5179 37.147 33.1517 35.2422 35.2179 32.8306C35.3921 32.6272 35.2393 32.3065 34.9716 32.3065H30.1322C30.0006 32.3065 29.8842 32.3919 29.8407 32.5161L29.8407 32.5161ZM9.86783 32.3065H5.01748C4.74946 32.3065 4.59698 32.6278 4.77179 32.8312C6.84722 35.2422 9.48186 37.147 12.4711 38.3558C12.7629 38.4737 13.0161 38.1265 12.835 37.8689C11.7915 36.3852 10.882 34.5788 10.1592 32.5161C10.1154 32.3923 9.99897 32.3065 9.86764 32.3065L9.86783 32.3065ZM5.01748 7.19285H9.86783C9.99917 7.19285 10.1156 7.10709 10.1591 6.9832C10.8819 4.92057 11.7917 3.11411 12.8349 1.63044C13.016 1.37313 12.7628 1.02559 12.471 1.14353C9.4816 2.35228 6.84719 4.25679 4.77168 6.66813C4.59687 6.87153 4.74935 7.19286 5.01767 7.19286L5.01748 7.19285ZM27.1654 1.63074C28.209 3.11441 29.1184 4.92088 29.8413 6.9835C29.8847 7.10769 30.0012 7.19316 30.1325 7.19316H34.9724C35.2401 7.19316 35.3929 6.87242 35.2187 6.66902C33.1525 4.25768 30.5188 2.35264 27.5293 1.14381C27.2375 1.02588 26.9843 1.37312 27.1654 1.63072L27.1654 1.63074ZM31.8258 21.3078C31.7257 24.2094 31.3508 26.9379 30.7496 29.415C30.7019 29.6115 30.8484 29.7953 31.0506 29.7953H37.1863C37.3012 29.7953 37.409 29.7336 37.4659 29.6339C38.8769 27.1552 39.7706 24.3446 39.9991 21.3491C40.0131 21.1653 39.8636 21.0054 39.6793 21.0054H32.1353C31.9673 21.0054 31.8315 21.14 31.8258 21.3077L31.8258 21.3078ZM21.2493 21.3194V29.4815C21.2493 29.6548 21.3899 29.7954 21.5632 29.7954H27.798C27.9418 29.7954 28.0684 29.7013 28.1056 29.5625C28.7718 27.0761 29.1941 24.2866 29.3111 21.3379C29.3183 21.1583 29.1723 21.0056 28.9928 21.0056H21.5628C21.3898 21.0056 21.2492 21.1461 21.2492 21.3195L21.2493 21.3194ZM21.2493 32.6202V39.175C21.2493 39.3939 21.4712 39.5594 21.674 39.4775C23.797 38.6192 25.6872 36.1749 27.0675 32.7445C27.1506 32.5381 26.9957 32.3067 26.7733 32.3067H21.5631C21.3898 32.3064 21.2493 32.447 21.2493 32.6203L21.2493 32.6202ZM12.9325 32.7441C14.3122 36.1733 16.2009 38.6168 18.3129 39.4763C18.5157 39.5588 18.7379 39.3932 18.7379 39.1741V32.6199C18.7379 32.4466 18.5973 32.306 18.424 32.306H13.2264C13.0039 32.3063 12.849 32.5377 12.9324 32.7441L12.9325 32.7441ZM10.6885 21.3374C10.8055 24.2862 11.2278 27.0758 11.8939 29.5619C11.9312 29.7007 12.058 29.7948 12.2016 29.7948H18.4239C18.5972 29.7948 18.7378 29.6542 18.7378 29.4809V21.3189C18.7378 21.1455 18.5972 21.005 18.4239 21.005H11.0065C10.8269 21.005 10.6813 21.1578 10.6884 21.3373L10.6885 21.3374ZM11.8939 9.93669C11.2277 12.423 10.8055 15.2126 10.6885 18.1613C10.6813 18.3409 10.8272 18.4936 11.0068 18.4936H18.4243C18.5976 18.4936 18.7381 18.3531 18.7381 18.1797V10.0177C18.7381 9.84435 18.5976 9.70378 18.4243 9.70378H12.2019C12.0581 9.70378 11.9312 9.79789 11.894 9.93667L11.8939 9.93669ZM13.2266 7.19242H18.4242C18.5975 7.19242 18.7381 7.05185 18.7381 6.87853L18.7378 0.324412C18.7378 0.105227 18.5156 -0.0603549 18.3128 0.0221425C16.2008 0.881576 14.3121 3.32509 12.9324 6.75436C12.849 6.96103 13.0039 7.19243 13.2266 7.19243L13.2266 7.19242ZM21.2491 0.323817V6.87855C21.2491 7.05187 21.3897 7.19244 21.563 7.19244H26.7731C26.9956 7.19244 27.1505 6.96104 27.0674 6.75466C25.6871 3.32425 23.7969 0.879822 21.6738 0.0213039C21.471 -0.0605912 21.2492 0.104991 21.2492 0.323878L21.2491 0.323817ZM27.7981 9.70417H21.563C21.3897 9.70417 21.2491 9.84474 21.2491 10.0181V18.1801C21.2491 18.3534 21.3897 18.494 21.563 18.494H28.993C29.1725 18.494 29.3184 18.3412 29.3113 18.1617C29.1943 15.2128 28.772 12.4232 28.1058 9.93707C28.0686 9.7983 27.942 9.70419 27.7982 9.70419L27.7981 9.70417ZM37.1854 9.70417H31.0497C30.8475 9.70417 30.701 9.88792 30.7486 10.0845C31.3499 12.5616 31.7249 15.2901 31.8249 18.1916C31.8305 18.3593 31.9663 18.4939 32.1343 18.4939H39.6783C39.8626 18.4939 40.0121 18.334 39.9981 18.1502C39.7694 15.1549 38.876 12.3442 37.465 9.86543C37.4081 9.76567 37.3006 9.70402 37.1853 9.70402L37.1854 9.70417ZM2.53433 9.86588C1.12331 12.3445 0.229647 15.1552 0.000932399 18.1507C-0.0130642 18.3344 0.13643 18.4943 0.320774 18.4943H7.86477C8.03273 18.4943 8.16854 18.3597 8.17419 18.1921C8.27426 15.2905 8.64949 12.562 9.25045 10.0849C9.2981 9.88836 9.15158 9.70461 8.94937 9.70461L2.81395 9.70431C2.69899 9.70431 2.59119 9.76596 2.53431 9.86602L2.53433 9.86588ZM7.86475 21.0058H0.320752C0.136408 21.0058 -0.0130882 21.1657 0.000909133 21.3495C0.229624 24.3445 1.12336 27.1552 2.53431 29.6343C2.59119 29.7343 2.69869 29.7957 2.81395 29.7957H8.9496C9.1518 29.7957 9.29833 29.6119 9.25068 29.4154C8.64941 26.9383 8.27445 24.2098 8.17442 21.3082C8.16847 21.1406 8.03267 21.0059 7.8647 21.0059L7.86475 21.0058Z" fill="#132F2A"></path>
    <path d="M29.8407 32.5161C29.1179 34.5787 28.2082 36.3852 27.1646 37.8689C26.9835 38.1262 27.2367 38.4737 27.5285 38.3558C30.5179 37.147 33.1517 35.2422 35.2179 32.8306C35.3921 32.6272 35.2394 32.3064 34.9716 32.3064H30.1322C30.0006 32.3064 29.8842 32.3919 29.8407 32.5161ZM9.86783 32.3065H5.01748C4.74946 32.3065 4.59698 32.6278 4.77179 32.8312C6.84722 35.2422 9.48186 37.147 12.4711 38.3558C12.7629 38.4737 13.0161 38.1265 12.835 37.8689C11.7915 36.3852 10.882 34.5787 10.1592 32.5161C10.1154 32.3922 9.99916 32.3065 9.86783 32.3065ZM5.01748 7.19283H9.86783C9.99917 7.19283 10.1156 7.10706 10.1591 6.98317C10.8819 4.92055 11.7917 3.11409 12.8349 1.63041C13.016 1.37311 12.7628 1.02557 12.471 1.1435C9.4816 2.35226 6.84719 4.25677 4.77168 6.6681C4.59687 6.87151 4.74916 7.19283 5.01748 7.19283ZM27.1654 1.63072C28.209 3.11439 29.1184 4.92085 29.8413 6.98348C29.8847 7.10766 30.0012 7.19313 30.1325 7.19313H34.9724C35.2401 7.19313 35.3929 6.8724 35.2187 6.669C33.1525 4.25766 30.5188 2.35262 27.5293 1.14379C27.2375 1.02585 26.9844 1.37312 27.1654 1.63072ZM31.8258 21.3078C31.7257 24.2093 31.3508 26.9378 30.7496 29.415C30.7019 29.6115 30.8484 29.7953 31.0506 29.7953H37.1863C37.3012 29.7953 37.409 29.7336 37.4659 29.6339C38.8769 27.1552 39.7706 24.3445 39.9991 21.3491C40.0131 21.1653 39.8636 21.0054 39.6793 21.0054H32.1353C31.9673 21.0054 31.8315 21.1401 31.8258 21.3078ZM37.1854 9.70414H31.0497C30.8475 9.70414 30.701 9.88789 30.7486 10.0844C31.3499 12.5616 31.7249 15.2901 31.8249 18.1916C31.8305 18.3593 31.9663 18.4939 32.1343 18.4939H39.6783C39.8626 18.4939 40.0121 18.334 39.9981 18.1502C39.7694 15.1549 38.876 12.3442 37.465 9.86541C37.4081 9.76564 37.3006 9.70414 37.1854 9.70414ZM2.53433 9.86585C1.12331 12.3445 0.229647 15.1552 0.000932399 18.1507C-0.0130642 18.3344 0.13643 18.4943 0.320774 18.4943H7.86477C8.03273 18.4943 8.16854 18.3597 8.17419 18.1921C8.27426 15.2905 8.64949 12.562 9.25045 10.0849C9.2981 9.88833 9.15158 9.70458 8.94937 9.70458L2.81395 9.70429C2.69899 9.70429 2.59121 9.76579 2.53433 9.86585ZM7.86475 21.0058H0.320752C0.136408 21.0058 -0.0130882 21.1657 0.000909133 21.3494C0.229624 24.3445 1.12336 27.1551 2.53431 29.6342C2.59119 29.7343 2.69869 29.7957 2.81395 29.7957H8.9496C9.1518 29.7957 9.29833 29.6119 9.25068 29.4154C8.64941 26.9382 8.27445 24.2097 8.17442 21.3082C8.16847 21.1405 8.03271 21.0058 7.86475 21.0058Z" fill="#132F2A"></path>
  </g>
  <defs>
    <clipPath id="clip0_241_8356">
      <rect width="40" height="40" fill="white"></rect>
    </clipPath>
  </defs>
</svg>
