<?xml version="1.0" encoding="UTF-8"?>
<svg xmlns="http://www.w3.org/2000/svg" width="40" height="40" viewBox="0 0 40 40" fill="none">
  <path d="M31.0291 24.3613C30.5563 22.2447 29.4854 20.3092 27.9434 18.7844C26.4017 17.2596 24.4539 16.2103 22.3327 15.761C20.795 15.4345 19.2062 15.4345 17.6685 15.761C16.0181 16.1062 14.4671 16.8194 13.131 17.8481C12.5979 18.2603 12.1008 18.7174 11.6457 19.2145C8.98038 22.1338 8.03317 26.2327 9.14683 30.0251C10.2608 33.8177 13.2739 36.7535 17.0943 37.7677C20.9148 38.7823 24.9878 37.728 27.8362 34.9874C30.6848 32.2468 31.8953 28.2178 31.0294 24.3609L31.0291 24.3613ZM20.743 32.7634V33.7742C20.743 34.1844 20.4104 34.5169 20.0003 34.5169C19.5902 34.5169 19.2577 34.1844 19.2577 33.7742V32.7613C18.1258 32.6115 17.1132 31.9819 16.4776 31.0337C16.2608 30.6856 16.3669 30.2274 16.715 30.0102C17.0628 29.793 17.521 29.8994 17.7382 30.2476C18.2624 30.9667 19.1108 31.3774 20.0003 31.3417C21.3782 31.3417 22.4989 30.4939 22.4989 29.4509V29.4513C22.4654 29.0819 22.3258 28.7301 22.0971 28.438C21.8686 28.1459 21.5606 27.9261 21.2102 27.8048C20.7855 27.643 20.3372 27.5514 19.883 27.5335C19.2345 27.504 18.5966 27.3562 18.0015 27.0969C17.4285 26.8496 16.9379 26.4444 16.5864 25.9285C16.235 25.413 16.0374 24.8079 16.0165 24.1842C16.0165 22.5387 17.4152 21.1688 19.2577 20.8724V19.8615C19.2577 19.4514 19.5903 19.1188 20.0004 19.1188C20.4105 19.1188 20.7431 19.4514 20.7431 19.8615V20.875C21.8487 21.0242 22.842 21.6283 23.4829 22.5414C23.7064 22.8842 23.6102 23.343 23.2681 23.5675C22.9259 23.7916 22.4667 23.6968 22.2413 23.3553C21.7151 22.6534 20.8766 22.2566 20.0004 22.294C18.6225 22.294 17.5018 23.1418 17.5018 24.1842C17.5273 24.53 17.6493 24.8616 17.8542 25.1414C18.0591 25.4212 18.3386 25.6374 18.6609 25.766C19.0982 25.9407 19.5623 26.0389 20.0328 26.0561C20.6558 26.0846 21.2685 26.2219 21.8441 26.4616C22.4511 26.7003 22.976 27.1098 23.3556 27.6399C23.7356 28.1704 23.9537 28.7993 23.9842 29.4512C23.9235 30.2976 23.5645 31.095 22.971 31.7017C22.3775 32.3081 21.5881 32.6844 20.743 32.7634L20.743 32.7634Z" fill="#132F2A"></path>
  <path d="M24.0557 14.082C24.0484 14.1948 24.0511 14.3111 24.0398 14.4242L24.0176 14.6768C24.6707 14.8927 25.3043 15.1635 25.9113 15.4861C25.9902 15.1705 26.03 14.8462 26.0303 14.5207H24.7307C24.4386 14.5213 24.1741 14.3489 24.0557 14.082H24.0557Z" fill="#132F2A"></path>
  <path d="M28.6963 2C25.8533 1.99834 23.115 3.07292 21.0322 5.00783L21.1436 5.14144C23.0454 7.43674 24.0878 10.3229 24.0917 13.3034C24.0917 13.3469 24.0864 13.3867 24.0857 13.4298H24.0861C24.2111 13.1891 24.4594 13.0375 24.7306 13.0362H25.763C25.6589 12.769 25.5475 12.5237 25.4288 12.2786H25.4285C24.9345 11.4806 24.7744 10.5201 24.9829 9.60505C25.2306 8.64222 25.8562 7.82037 26.7176 7.32469C27.5793 6.82903 28.6044 6.70172 29.5609 6.97159C30.5177 7.24147 31.3251 7.8857 31.8009 8.75831C32.0074 9.11074 31.8917 9.56397 31.541 9.77385C31.1905 9.98372 30.7363 9.87198 30.5235 9.5232C30.2493 8.98477 29.7659 8.58227 29.1867 8.41023C28.6071 8.23783 27.9825 8.31142 27.4587 8.61313C26.9352 8.91484 26.5582 9.41846 26.4167 10.0059C26.3149 10.5765 26.4432 11.1637 26.7731 11.6398C26.9975 12.0891 27.1839 12.5559 27.3301 13.0363H29.5282C29.9383 13.0363 30.2709 13.3685 30.2709 13.7789C30.2709 14.1891 29.9383 14.5216 29.5282 14.5216H27.523C27.514 15.1187 27.4189 15.7116 27.2409 16.2814C27.9666 16.7801 28.6363 17.3549 29.2387 17.9972C29.246 18.0045 29.246 18.0045 29.2537 18.0045H29.2533C29.7165 18.2143 30.2238 18.3085 30.7314 18.2793C31.2748 18.2213 31.793 18.0187 32.2316 17.6925C32.5681 17.4561 33.0326 17.5357 33.2714 17.8709C33.3847 18.0313 33.4298 18.2303 33.3964 18.4239C33.3629 18.6178 33.2538 18.7902 33.093 18.9033C32.4405 19.3774 31.6746 19.6718 30.8726 19.7573C30.7984 19.7646 30.7314 19.7722 30.6648 19.7722L30.6644 19.7719C31.5125 21.045 32.1216 22.4617 32.4618 23.9534C35.8415 22.7605 38.4544 20.0348 39.5045 16.608C40.5542 13.1815 39.9156 9.45982 37.7841 6.57905C35.6526 3.69794 32.2804 1.99906 28.6964 2.00042L28.6963 2Z" fill="#132F2A"></path>
  <path d="M19.9999 6.0919C17.749 3.37418 14.3579 1.86432 10.8324 2.00988C7.30678 2.15543 4.05162 3.93979 2.03251 6.83355C0.0133938 9.7273 -0.53762 13.3985 0.54251 16.7581C1.62298 20.1173 4.21076 22.7787 7.53815 23.9533C7.97679 22.027 8.86204 20.231 10.1225 18.7099C8.69322 18.0302 7.58126 16.825 7.01828 15.3457H4.90165C4.49153 15.3457 4.15899 15.0131 4.15899 14.603C4.15899 14.1929 4.49153 13.8603 4.90165 13.8603H6.68404C6.65188 13.4721 6.65686 13.0815 6.69896 12.6943H4.90163C4.49151 12.6943 4.15897 12.3618 4.15897 11.9516C4.15897 11.5415 4.49151 11.209 4.90163 11.209H7.05536C7.27484 10.6324 7.58284 10.0936 7.96879 9.6123C9.18328 8.11772 11.0114 7.25699 12.9373 7.27295C13.9363 7.27195 14.9223 7.50072 15.8188 7.94135C16.1858 8.12402 16.3353 8.56962 16.153 8.93669C15.9703 9.30371 15.5247 9.45323 15.1576 9.27088C14.467 8.93039 13.7071 8.755 12.9373 8.75831C11.4603 8.74074 10.0565 9.40019 9.12713 10.5483C8.9587 10.7542 8.80951 10.9754 8.68153 11.2091H12.254C12.6641 11.2091 12.9966 11.5417 12.9966 11.9518C12.9966 12.3619 12.6641 12.6944 12.254 12.6944H8.18425C8.13319 13.0814 8.13087 13.4729 8.17662 13.8605H12.254C12.6641 13.8605 12.9966 14.193 12.9966 14.6031C12.9966 15.0133 12.6641 15.3458 12.254 15.3458H8.64446C9.19416 16.3732 10.1039 17.1614 11.1994 17.5589C14.2221 14.6724 18.4679 13.4513 22.5626 14.2911C22.5924 13.9642 22.607 13.6377 22.607 13.3034C22.6093 10.6686 21.6866 8.11675 20.0004 6.09229L19.9999 6.0919Z" fill="#132F2A"></path>
</svg>
