<?xml version="1.0" encoding="UTF-8"?>
<svg xmlns="http://www.w3.org/2000/svg" width="40" height="40" viewBox="0 0 40 40" fill="none">
  <g clip-path="url(#clip0_265_7095)">
    <path d="M32.3322 4.44588V2.06001C32.3322 0.652078 31.1801 -0.5 29.7722 -0.5H2.89204C1.48411 -0.5 0.332031 0.652078 0.332031 2.06001V4.44588H32.3322Z" fill="#132F2A"></path>
    <path d="M32.1193 18.7279C32.186 18.5742 32.2385 18.4132 32.2744 18.2461C32.2753 18.2433 32.2761 18.2405 32.2764 18.2377C32.2923 18.1629 32.3035 18.0865 32.3127 18.0092C32.3138 17.9983 32.3163 17.988 32.3174 17.9771C32.3275 17.89 32.3322 17.8016 32.3322 17.712V8.44556H0.332031V17.712C0.332031 18.2399 0.494139 18.7321 0.770927 19.1409C0.862727 19.2768 0.967914 19.404 1.08399 19.5201C1.20006 19.6362 1.32729 19.7414 1.46317 19.8334C1.6677 19.9718 1.89286 20.0815 2.13282 20.1565C2.37278 20.2319 2.62808 20.272 2.89204 20.272H29.7722C30.8193 20.272 31.7242 19.6339 32.1193 18.728L32.1193 18.7279Z" fill="#132F2A"></path>
    <path d="M37.7722 18.728H36.2454C35.7546 21.8634 33.0431 24.2721 29.7721 24.2721H8.33203V36.94C8.33203 38.348 9.48411 39.5 10.892 39.5H37.7722C39.1801 39.5 40.3322 38.348 40.3322 36.94V21.2878C40.3322 19.8799 39.1801 18.7278 37.7722 18.7278V18.728ZM16.1842 35.0874H10.892V31.8873H16.1842V35.0874ZM23.38 35.0874H18.0881V31.8873H23.3803L23.38 35.0874ZM30.5757 35.0874H25.2838V31.8873H30.576L30.5757 35.0874ZM37.7722 35.0874H32.48V31.8873H37.7722V35.0874Z" fill="#132F2A"></path>
  </g>
  <defs>
    <clipPath id="clip0_265_7095">
      <rect width="40" height="40" fill="white"></rect>
    </clipPath>
  </defs>
</svg>
