<?xml version="1.0" encoding="UTF-8"?>
<svg xmlns="http://www.w3.org/2000/svg" width="40" height="40" viewBox="0 0 40 40" fill="none">
  <path d="M39.9995 13.49C39.4144 6.9875 34.3595 1.78714 27.9424 1C30.8023 4.67493 32.3573 9.045 32.6047 13.49H39.9995Z" fill="#132F2A"></path>
  <path d="M30.095 13.4899C29.86 9.74241 28.5824 6.05277 26.2501 2.90991C23.9176 6.05248 22.6402 9.74248 22.4053 13.4899H30.095Z" fill="#132F2A"></path>
  <path d="M24.5571 1C18.1397 1.78736 13.085 6.98743 12.5 13.49H19.895C20.1425 9.045 21.6974 4.675 24.5574 1H24.5571Z" fill="#132F2A"></path>
  <path d="M37.4996 18.5001V22.7602C38.8746 20.8202 39.7747 18.5177 39.9996 16.0127H36.8096C37.237 16.7476 37.4996 17.5903 37.4996 18.5001H37.4996Z" fill="#132F2A"></path>
  <path d="M0 36C0 37.38 1.1225 38.5 2.5 38.5H32.5C33.88 38.5 35 37.38 35 36V26H0V36ZM6.25 31H11.25C11.94 31 12.5 31.56 12.5 32.25C12.5 32.94 11.94 33.5 11.25 33.5H6.25C5.55999 33.5 5 32.94 5 32.25C5 31.56 5.55999 31 6.25 31Z" fill="#132F2A"></path>
  <path d="M32.5 16H2.5C1.1225 16 0 17.1225 0 18.5V21H35V18.5C35 17.1225 33.88 16 32.5 16Z" fill="#132F2A"></path>
</svg>
