<?xml version="1.0" encoding="UTF-8"?>
<svg xmlns="http://www.w3.org/2000/svg" width="40" height="40" viewBox="0 0 40 40" fill="none">
  <path d="M31.5847 21.6223L27.2885 25.8518C27.7739 26.4242 28.0692 27.1335 28.1327 27.8815C28.2121 28.7658 27.9578 29.648 27.4201 30.3547C26.7845 31.1457 25.8639 31.6566 24.8563 31.777C23.8484 31.8977 22.8335 31.6186 22.0293 30.9999L19.8144 29.1779C19.4972 28.918 19.4509 28.4504 19.7105 28.1332C19.9704 27.8161 20.438 27.7698 20.7552 28.0297L22.9701 29.8518H22.9697C23.4301 30.2294 24.0196 30.4129 24.6129 30.3633C25.2061 30.3134 25.7568 30.0343 26.1476 29.5852C26.5239 29.1497 26.7081 28.5806 26.6588 28.0072C26.6049 27.4285 26.3222 26.8951 25.8735 26.5257L20.8438 22.3925H20.8441C20.4893 22.2801 20.1196 22.2229 19.7476 22.2222H12.5923C12.1832 22.2222 11.8516 22.5539 11.8516 22.963V37.7776C11.8535 38.1717 12.1617 38.4961 12.5553 38.5183L24.5178 39.1552C24.5992 39.1625 24.6881 39.1625 24.7698 39.1625V39.1628C26.243 39.1631 27.6471 38.5355 28.6289 37.4369L37.6218 27.3774C38.5947 26.2901 38.9287 24.7732 38.5027 23.3774C38.0768 21.9817 36.9525 20.9099 35.5381 20.5511C34.1237 20.1922 32.6245 20.5984 31.5848 21.6221L31.5847 21.6223Z" fill="#132F2A"></path>
  <path d="M1.48146 20.741H8.88877C9.70688 20.741 10.3702 21.5591 10.3702 22.2224V38.5185C10.3702 39.3366 9.70688 40 8.88877 40H1.48146C0.663348 40 0 39.1819 0 38.5185V22.2224C0 21.4043 0.663348 20.741 1.48146 20.741Z" fill="#132F2A"></path>
  <path d="M16.5112 19.1486C17.6739 20.7855 20.9185 21.4819 23.8517 21.4819C24.074 21.4819 24.3034 21.4746 24.5257 21.467C26.0293 21.4151 29.6589 21.0669 30.8441 19.104C33.5619 14.5974 29.7998 9.1113 27.7724 6.66731H28.8888C29.2978 6.66731 29.6295 6.33563 29.6295 5.92658C29.6295 5.51752 29.2978 5.18585 28.8888 5.18585H28.3015C29.1675 4.49339 29.6593 3.4345 29.6296 2.32578C29.6335 1.91144 29.5267 1.50337 29.321 1.14357C29.115 0.783789 28.8171 0.485186 28.4576 0.278484C28.1256 0.0893308 27.7486 -0.006566 27.3663 0.000714327C26.9844 0.00832007 26.6114 0.118435 26.2867 0.319821L24.788 1.23418C24.463 1.43689 24.087 1.54469 23.7037 1.54469C23.3204 1.54469 22.9444 1.43689 22.6193 1.23418L21.1207 0.319821C20.7963 0.118105 20.4229 0.00765583 20.041 0.000383966C19.6587 -0.00689111 19.2817 0.0893395 18.9497 0.278493C18.5902 0.485169 18.2923 0.783781 18.0863 1.14358C17.8806 1.50336 17.7738 1.91143 17.7778 2.32579C17.748 3.4346 18.2397 4.49338 19.1058 5.18585H17.037C16.628 5.18585 16.2963 5.51753 16.2963 5.92658C16.2963 6.33564 16.628 6.66732 17.037 6.66732H19.6392C17.6488 9.23541 13.7074 15.2014 16.5113 19.1488L16.5112 19.1486ZM23.7036 12.5931C24.404 12.5984 25.061 12.9341 25.4761 13.4982C25.8914 14.0623 26.0161 14.7892 25.8131 15.4595C25.61 16.1298 25.1028 16.6651 24.4444 16.9042V17.0375C24.4444 17.4465 24.1127 17.7782 23.7036 17.7782C23.2946 17.7782 22.9629 17.4465 22.9629 17.0375V16.9115C22.5734 16.8195 22.2222 16.6089 21.9569 16.3093C21.6914 16.0097 21.5254 15.6354 21.4814 15.2375C21.4814 14.8285 21.8131 14.4968 22.2222 14.4968C22.6312 14.4968 22.9629 14.8285 22.9629 15.2375C23.1573 15.4383 23.4242 15.5527 23.7036 15.556C24.1127 15.556 24.4443 15.2243 24.4443 14.8153C24.4443 14.4062 24.1127 14.0745 23.7036 14.0745C23.0032 14.0692 22.3462 13.7336 21.9311 13.1695C21.5158 12.6053 21.3911 11.8785 21.5941 11.2082C21.7972 10.5379 22.3044 10.0025 22.9628 9.76348V9.63022C22.9628 9.22117 23.2945 8.88949 23.7036 8.88949C24.1126 8.88949 24.4443 9.22117 24.4443 9.63022V9.75621C24.8339 9.84814 25.185 10.0588 25.4503 10.3584C25.7158 10.658 25.8818 11.0323 25.9258 11.4301C25.9258 11.8392 25.5941 12.1708 25.1851 12.1708C24.776 12.1708 24.4443 11.8392 24.4443 11.4301C24.2499 11.2294 23.983 11.115 23.7036 11.1117C23.2945 11.1117 22.9629 11.4433 22.9629 11.8524C22.9629 12.2615 23.2945 12.5931 23.7036 12.5931ZM19.6749 1.57021C19.8845 1.44753 20.1451 1.45282 20.3495 1.5841L21.8481 2.49812C22.4063 2.84071 23.0485 3.02193 23.7036 3.02193C24.3586 3.02193 25.0008 2.84071 25.559 2.49812L27.0577 1.5841C27.2617 1.45216 27.523 1.44654 27.7323 1.57021C27.9988 1.72696 28.1582 2.01663 28.148 2.3255C28.148 3.71799 27.2525 4.3093 25.354 5.18556H22.0531C20.1547 4.30922 19.2592 3.71833 19.2592 2.3255C19.2489 2.01664 19.4083 1.72696 19.6749 1.57021Z" fill="#132F2A"></path>
</svg>
