<?xml version="1.0" encoding="UTF-8"?>
<svg xmlns="http://www.w3.org/2000/svg" width="24" height="25" viewBox="0 0 24 25" fill="none">
  <path d="M11.931 9.48001L10.277 10.964C10.4941 11.7129 10.7996 12.4333 11.187 13.11C11.5902 13.7821 12.0752 14.4015 12.631 14.954L14.773 14.294C15.973 13.924 17.283 14.304 18.081 15.254L19.301 16.706C19.7949 17.2889 20.0426 18.0412 19.9914 18.8035C19.9403 19.5659 19.5944 20.2783 19.027 20.79C17.037 22.606 13.973 23.22 11.679 21.418C9.66284 19.8305 7.95694 17.8846 6.64698 15.678C5.33414 13.4818 4.45555 11.0538 4.05898 8.52601C3.61898 5.68201 5.70098 3.40601 8.29698 2.63001C9.84498 2.16601 11.497 2.96201 12.065 4.44601L12.735 6.19601C13.175 7.34801 12.859 8.64601 11.931 9.47801V9.48001Z" fill="#132F2A"></path>
</svg>
