<?xml version="1.0" encoding="UTF-8"?>
<svg xmlns="http://www.w3.org/2000/svg" width="24" height="22" viewBox="0 0 24 22" fill="none">
  <path d="M0 5.11428V17.8209C0 18.5592 0.420833 19.2565 1.125 19.5149C4.75 20.8479 8.375 19.9373 12 19.0268C15.325 18.1942 18.65 17.3574 21.9708 18.2516C22.9292 18.51 24 17.8619 24 16.8817V4.17912C24 3.44084 23.5792 2.74358 22.875 2.48518C19.25 1.15217 15.625 2.06272 12 2.97326C8.675 3.80588 5.35 4.6385 2.02917 3.74436C1.06667 3.48596 0 4.13401 0 5.11428ZM12 14.9375C10.1583 14.9375 8.66667 13.1738 8.66667 11C8.66667 8.82619 10.1583 7.06252 12 7.06252C13.8417 7.06252 15.3333 8.82619 15.3333 11C15.3333 13.1738 13.8417 14.9375 12 14.9375ZM2.66667 14.9375C4.1375 14.9375 5.33333 16.1147 5.33333 17.5625H2.66667V14.9375ZM5.33333 6.40627C5.33333 7.85412 4.1375 9.03127 2.66667 9.03127V6.40627H5.33333ZM21.3333 12.9688V15.5938H18.6667C18.6667 14.1459 19.8625 12.9688 21.3333 12.9688ZM18.6667 4.43752H21.3333V7.06252C19.8625 7.06252 18.6667 5.88537 18.6667 4.43752Z" fill="#132F2A"></path>
</svg>
