<?xml version="1.0" encoding="UTF-8"?>
<svg xmlns="http://www.w3.org/2000/svg" width="40" height="40" viewBox="0 0 40 40" fill="none">
  <path d="M38.3424 21.1097L28.7709 25.9063C28.2479 26.1562 27.6752 26.2934 27.0903 26.2934H24.0403C23.8684 26.2934 23.729 26.4334 23.729 26.6059V27.468C23.729 28.1551 23.1687 28.7172 22.4843 28.7172H17.5045C16.8197 28.7172 16.2597 28.1551 16.2597 27.468V26.6059C16.2597 26.4334 16.1204 26.2934 15.9484 26.2934H12.8232C12.238 26.2934 11.6655 26.1562 11.1426 25.8935L1.80862 21.1743C1.6017 21.0696 1.35742 21.2205 1.35742 21.4532V35.0014C1.35742 36.3818 2.47212 37.5006 3.84736 37.5006H36.3025C37.6777 37.5006 38.7924 36.3818 38.7924 35.0017V21.389C38.7924 21.1569 38.549 21.006 38.3421 21.1098L38.3424 21.1097Z" fill="#132F2A"></path>
  <path d="M37.5095 8.7273H28.7144V6.26112C28.7144 4.18745 27.0421 2.5 24.9862 2.5H15.0132C12.9573 2.5 11.285 4.18738 11.285 6.26082V8.727L2.48993 8.7273C1.12062 8.7273 0 9.85171 0 11.2261V16.6983C0 17.1729 0.26147 17.6102 0.684802 17.8227L12.231 23.6536C12.4148 23.7464 12.6176 23.7947 12.823 23.7947H15.9479C16.1199 23.7947 16.2592 23.6548 16.2592 23.4823V22.4702C16.2592 21.783 16.8195 21.2209 17.504 21.2209H22.4838C23.1683 21.2209 23.7285 21.783 23.7285 22.4702V23.4823C23.7285 23.6548 23.8679 23.7947 24.0398 23.7947H27.1226C27.3058 23.7947 27.4864 23.752 27.6503 23.6696L39.3027 17.8227C39.7299 17.6081 40 17.1699 40 16.6905V11.226C40 9.85171 38.8794 8.72722 37.5101 8.72722L37.5095 8.7273ZM26.2243 8.7273H13.7751V6.26112C13.7751 5.56505 14.3306 4.99881 15.0133 4.99881H24.9862C25.669 4.99881 26.2245 5.56504 26.2245 6.26112L26.2243 8.7273Z" fill="#132F2A"></path>
  <path d="M20.9266 26.219C21.0986 26.219 21.2379 26.0791 21.2379 25.9065V24.0327C21.2379 23.8601 21.0986 23.7202 20.9266 23.7202H19.0593C18.8874 23.7202 18.748 23.8601 18.748 24.0327V25.9065C18.748 26.0791 18.8874 26.219 19.0593 26.219H20.9266Z" fill="#132F2A"></path>
</svg>
