<?xml version="1.0" encoding="UTF-8"?>
<svg xmlns="http://www.w3.org/2000/svg" width="40" height="40" viewBox="0 0 40 40" fill="none">
  <g clip-path="url(#clip0_588_593)">
    <path d="M12 40C10.9 40 9.95867 39.6087 9.176 38.826C8.392 38.042 8 37.1 8 36C8 34.9 8.392 33.958 9.176 33.174C9.95867 32.3913 10.9 32 12 32C13.1 32 14.0413 32.3913 14.824 33.174C15.608 33.958 16 34.9 16 36C16 37.1 15.608 38.042 14.824 38.826C14.0413 39.6087 13.1 40 12 40ZM32 40C30.9 40 29.9587 39.6087 29.176 38.826C28.392 38.042 28 37.1 28 36C28 34.9 28.392 33.958 29.176 33.174C29.9587 32.3913 30.9 32 32 32C33.1 32 34.042 32.3913 34.826 33.174C35.6087 33.958 36 34.9 36 36C36 37.1 35.6087 38.042 34.826 38.826C34.042 39.6087 33.1 40 32 40ZM8.4 4H37.9C38.6667 4 39.25 4.34133 39.65 5.024C40.05 5.708 40.0667 6.4 39.7 7.1L32.6 19.9C32.2333 20.5667 31.7413 21.0833 31.124 21.45C30.508 21.8167 29.8333 22 29.1 22H14.2L12 26H36V30H12C10.5 30 9.36667 29.3413 8.6 28.024C7.83333 26.708 7.8 25.4 8.5 24.1L11.2 19.2L4 4H0V0H6.5L8.4 4Z" fill="#132F2A"></path>
  </g>
  <defs>
    <clipPath id="clip0_588_593">
      <rect width="40" height="40" fill="white"></rect>
    </clipPath>
  </defs>
</svg>
