<?xml version="1.0" encoding="UTF-8"?>
<svg xmlns="http://www.w3.org/2000/svg" width="24" height="24" viewBox="0 0 24 24" fill="none">
  <path d="M14.4 1C11.8539 1 9.41212 2.01143 7.61177 3.81178C5.81143 5.61212 4.8 8.05392 4.8 10.6C4.8 13.1461 5.81143 15.5879 7.61177 17.3882C9.41212 19.1886 11.8539 20.2 14.4 20.2C16.9461 20.2 19.3879 19.1886 21.1882 17.3882C22.9886 15.5879 24 13.1461 24 10.6C24 8.05392 22.9886 5.61212 21.1882 3.81178C19.3879 2.01143 16.9461 1 14.4 1ZM3.516 5.584C2.41886 6.48395 1.5346 7.61566 0.926691 8.89787C0.318782 10.1801 0.00231102 11.581 0 13C0 15.5461 1.01143 17.9879 2.81178 19.7882C4.61212 21.5886 7.05392 22.6 9.6 22.6C10.368 22.6 11.124 22.504 11.856 22.324C9.744 21.856 7.8 20.8 6.204 19.348C5.05484 18.7332 4.09408 17.818 3.42416 16.7C2.75424 15.5821 2.40027 14.3033 2.4 13C2.4 12.64 2.436 12.292 2.484 11.932C2.436 11.488 2.4 11.044 2.4 10.6C2.4 8.872 2.784 7.156 3.516 5.584ZM19.308 5.896L21 7.6L13.2 15.4L8.652 10.852L10.356 9.148L13.2 12.004" fill="#5DB4A3"></path>
</svg>
