<?xml version="1.0" encoding="UTF-8"?>
<svg xmlns="http://www.w3.org/2000/svg" width="96" height="96" viewBox="0 0 96 96" fill="none">
  <rect width="96" height="96" rx="8" fill="#F9FFFD"></rect>
  <g clip-path="url(#clip0_168_10291)">
    <path d="M21 21H30V30H21V21Z" fill="#132F2A"></path>
    <path d="M39 12V39H12V12H39ZM34.5 16.5H16.5V34.5H34.5V16.5ZM30 66H21V75H30V66Z" fill="#132F2A"></path>
    <path d="M39 57V84H12V57H39ZM16.5 61.5V79.5H34.5V61.5H16.5ZM66 21H75V30H66V21Z" fill="#132F2A"></path>
    <path d="M57 12V39H84V12H57ZM79.5 16.5V34.5H61.5V16.5H79.5ZM48 16.5V12H52.5V21H48V30H43.5V16.5H48ZM48 39V30H52.5V39H48ZM39 48V43.5H43.5V39H48V48H52.5V43.5H75V48H57V52.5H43.5V48H39ZM39 48V52.5H21V48H16.5V52.5H12V43.5H25.5V48H39ZM84 52.5H79.5V43.5H84V52.5ZM79.5 52.5H75V61.5H84V57H79.5V52.5ZM61.5 52.5H70.5V57H66V61.5H61.5V52.5ZM70.5 66V61.5H66V66H61.5V70.5H52.5V75H66V66H70.5ZM70.5 66H84V70.5H75V75H70.5V66ZM52.5 61.5V66H57V57H43.5V61.5H52.5Z" fill="#132F2A"></path>
    <path d="M43.5 66H48V79.5H66V84H43.5V66ZM84 75V84H70.5V79.5H79.5V75H84Z" fill="#132F2A"></path>
  </g>
  <defs>
    <clipPath id="clip0_168_10291">
      <rect width="72" height="72" fill="white" transform="translate(12 12)"></rect>
    </clipPath>
  </defs>
</svg>
